<?xml version="1.0" encoding="UTF-8" standalone="no"?>
<!DOCTYPE svg PUBLIC "-//W3C//DTD SVG 1.1//EN"
 "http://www.w3.org/Graphics/SVG/1.1/DTD/svg11.dtd">
<!-- Generated by graphviz version 2.40.1 (20161225.0304)
 -->
<!-- Title: dependencies Pages: 1 -->
<svg width="504pt" height="284pt"
 viewBox="0.00 0.00 504.00 284.00" xmlns="http://www.w3.org/2000/svg" xmlns:xlink="http://www.w3.org/1999/xlink">
<g id="graph0" class="graph" transform="scale(1 1) rotate(0) translate(4 280)">
<title>dependencies</title>
<polygon fill="#ffffff" stroke="transparent" points="-4,4 -4,-280 500,-280 500,4 -4,4"/>
<text text-anchor="start" x="227.0091" y="-42.4" font-family="sans-serif" font-weight="bold" font-size="14.00" fill="#000000">Legend</text>
<polygon fill="#ffffb3" stroke="transparent" points="14,-10 14,-30 34,-30 34,-10 14,-10"/>
<text text-anchor="start" x="37.629" y="-15.4" font-family="sans-serif" font-size="14.00" fill="#000000"> &#160;Declarations</text>
<polygon fill="#8dd3c7" stroke="transparent" points="127,-10 127,-30 147,-30 147,-10 127,-10"/>
<text text-anchor="start" x="150.7251" y="-15.4" font-family="sans-serif" font-size="14.00" fill="#000000"> &#160;Module</text>
<polygon fill="#80b1d3" stroke="transparent" points="213,-10 213,-30 233,-30 233,-10 213,-10"/>
<text text-anchor="start" x="236.7812" y="-15.4" font-family="sans-serif" font-size="14.00" fill="#000000"> &#160;Bootstrap</text>
<polygon fill="#fdb462" stroke="transparent" points="310,-10 310,-30 330,-30 330,-10 310,-10"/>
<text text-anchor="start" x="333.6732" y="-15.4" font-family="sans-serif" font-size="14.00" fill="#000000"> &#160;Providers</text>
<polygon fill="#fb8072" stroke="transparent" points="406,-10 406,-30 426,-30 426,-10 406,-10"/>
<text text-anchor="start" x="429.7258" y="-15.4" font-family="sans-serif" font-size="14.00" fill="#000000"> &#160;Exports</text>
<g id="clust1" class="cluster">
<title>cluster_QueryBuilderModule</title>
<polygon fill="none" stroke="#000000" stroke-dasharray="1,5" points="119.5,-70 119.5,-268 376.5,-268 376.5,-70 119.5,-70"/>
</g>
<g id="clust3" class="cluster">
<title>cluster_QueryBuilderModule_imports</title>
<polygon fill="none" stroke="#000000" points="127.5,-78 127.5,-130 368.5,-130 368.5,-78 127.5,-78"/>
</g>
<g id="clust4" class="cluster">
<title>cluster_QueryBuilderModule_exports</title>
<polygon fill="none" stroke="#000000" points="158.5,-208 158.5,-260 336.5,-260 336.5,-208 158.5,-208"/>
</g>
<!-- CommonModule -->
<g id="node1" class="node">
<title>CommonModule</title>
<polygon fill="#8dd3c7" stroke="#000000" points="360.1681,-122 357.1681,-126 336.1681,-126 333.1681,-122 248.8319,-122 248.8319,-86 360.1681,-86 360.1681,-122"/>
<text text-anchor="middle" x="304.5" y="-99.8" font-family="Times,serif" font-size="14.00" fill="#000000">CommonModule</text>
</g>
<!-- QueryBuilderModule -->
<g id="node3" class="node">
<title>QueryBuilderModule</title>
<polygon fill="#8dd3c7" stroke="#000000" points="315.5254,-187 312.5254,-191 291.5254,-191 288.5254,-187 179.4746,-187 179.4746,-151 315.5254,-151 315.5254,-187"/>
<text text-anchor="middle" x="247.5" y="-164.8" font-family="Times,serif" font-size="14.00" fill="#000000">QueryBuilderModule</text>
</g>
<!-- CommonModule&#45;&gt;QueryBuilderModule -->
<g id="edge1" class="edge">
<title>CommonModule&#45;&gt;QueryBuilderModule</title>
<path fill="none" stroke="#000000" d="M282.2143,-122.1061C282.2143,-122.1061 282.2143,-140.991 282.2143,-140.991"/>
<polygon fill="#000000" stroke="#000000" points="278.7143,-140.9909 282.2143,-150.991 285.7143,-140.991 278.7143,-140.9909"/>
</g>
<!-- FormsModule -->
<g id="node2" class="node">
<title>FormsModule</title>
<polygon fill="#8dd3c7" stroke="#000000" points="231.3288,-122 228.3288,-126 207.3288,-126 204.3288,-122 135.6712,-122 135.6712,-86 231.3288,-86 231.3288,-122"/>
<text text-anchor="middle" x="183.5" y="-99.8" font-family="Times,serif" font-size="14.00" fill="#000000">FormsModule</text>
</g>
<!-- FormsModule&#45;&gt;QueryBuilderModule -->
<g id="edge2" class="edge">
<title>FormsModule&#45;&gt;QueryBuilderModule</title>
<path fill="none" stroke="#000000" d="M205.2009,-122.1061C205.2009,-122.1061 205.2009,-140.991 205.2009,-140.991"/>
<polygon fill="#000000" stroke="#000000" points="201.701,-140.9909 205.2009,-150.991 208.701,-140.991 201.701,-140.9909"/>
</g>
<!-- QueryBuilderComponent  -->
<g id="node4" class="node">
<title>QueryBuilderComponent </title>
<polygon fill="#fb8072" stroke="#000000" points="328.3073,-252 166.6927,-252 166.6927,-216 328.3073,-216 328.3073,-252"/>
<text text-anchor="middle" x="247.5" y="-229.8" font-family="Times,serif" font-size="14.00" fill="#000000">QueryBuilderComponent </text>
</g>
<!-- QueryBuilderModule&#45;&gt;QueryBuilderComponent  -->
<g id="edge3" class="edge">
<title>QueryBuilderModule&#45;&gt;QueryBuilderComponent </title>
<path fill="none" stroke="#000000" stroke-dasharray="5,2" d="M247.5,-187.1061C247.5,-187.1061 247.5,-205.991 247.5,-205.991"/>
<polygon fill="#000000" stroke="#000000" points="244.0001,-205.9909 247.5,-215.991 251.0001,-205.991 244.0001,-205.9909"/>
</g>
</g>
</svg>
