<?xml version="1.0" encoding="UTF-8" standalone="no"?>
<!DOCTYPE svg PUBLIC "-//W3C//DTD SVG 1.1//EN"
 "http://www.w3.org/Graphics/SVG/1.1/DTD/svg11.dtd">
<!-- Generated by graphviz version 2.40.1 (20161225.0304)
 -->
<!-- Title: dependencies Pages: 1 -->
<svg width="706pt" height="290pt"
 viewBox="0.00 0.00 706.00 290.00" xmlns="http://www.w3.org/2000/svg" xmlns:xlink="http://www.w3.org/1999/xlink">
<g id="graph0" class="graph" transform="scale(1 1) rotate(0) translate(4 286)">
<title>dependencies</title>
<polygon fill="#ffffff" stroke="transparent" points="-4,4 -4,-286 702,-286 702,4 -4,4"/>
<text text-anchor="start" x="328.0091" y="-42.4" font-family="sans-serif" font-weight="bold" font-size="14.00" fill="#000000">Legend</text>
<polygon fill="#ffffb3" stroke="transparent" points="115,-10 115,-30 135,-30 135,-10 115,-10"/>
<text text-anchor="start" x="138.629" y="-15.4" font-family="sans-serif" font-size="14.00" fill="#000000"> &#160;Declarations</text>
<polygon fill="#8dd3c7" stroke="transparent" points="228,-10 228,-30 248,-30 248,-10 228,-10"/>
<text text-anchor="start" x="251.7251" y="-15.4" font-family="sans-serif" font-size="14.00" fill="#000000"> &#160;Module</text>
<polygon fill="#80b1d3" stroke="transparent" points="314,-10 314,-30 334,-30 334,-10 314,-10"/>
<text text-anchor="start" x="337.7812" y="-15.4" font-family="sans-serif" font-size="14.00" fill="#000000"> &#160;Bootstrap</text>
<polygon fill="#fdb462" stroke="transparent" points="411,-10 411,-30 431,-30 431,-10 411,-10"/>
<text text-anchor="start" x="434.6732" y="-15.4" font-family="sans-serif" font-size="14.00" fill="#000000"> &#160;Providers</text>
<polygon fill="#fb8072" stroke="transparent" points="507,-10 507,-30 527,-30 527,-10 507,-10"/>
<text text-anchor="start" x="530.7258" y="-15.4" font-family="sans-serif" font-size="14.00" fill="#000000"> &#160;Exports</text>
<g id="clust1" class="cluster">
<title>cluster_AppModule</title>
<polygon fill="none" stroke="#000000" stroke-dasharray="1,5" points="8,-70 8,-274 306,-274 306,-70 8,-70"/>
</g>
<g id="clust2" class="cluster">
<title>cluster_AppModule_declarations</title>
<polygon fill="none" stroke="#000000" points="16,-78 16,-130 138,-130 138,-78 16,-78"/>
</g>
<g id="clust4" class="cluster">
<title>cluster_AppModule_imports</title>
<polygon fill="none" stroke="#000000" points="146,-78 146,-130 298,-130 298,-78 146,-78"/>
</g>
<g id="clust6" class="cluster">
<title>cluster_AppModule_bootstrap</title>
<polygon fill="none" stroke="#000000" points="88,-214 88,-266 212,-266 212,-214 88,-214"/>
</g>
<g id="clust8" class="cluster">
<title>cluster_QueryBuilderModule</title>
<polygon fill="none" stroke="#000000" stroke-dasharray="1,5" points="314,-138 314,-206 690,-206 690,-138 314,-138"/>
</g>
<g id="clust9" class="cluster">
<title>cluster_QueryBuilderModule_declarations</title>
<polygon fill="none" stroke="#000000" points="508,-146 508,-198 682,-198 682,-146 508,-146"/>
</g>
<g id="clust12" class="cluster">
<title>cluster_QueryBuilderModule_exports</title>
<polygon fill="none" stroke="#000000" points="322,-146 322,-198 500,-198 500,-146 322,-146"/>
</g>
<!-- AppComponent -->
<g id="node1" class="node">
<title>AppComponent</title>
<polygon fill="#ffffb3" stroke="#000000" points="129.9399,-122 24.0601,-122 24.0601,-86 129.9399,-86 129.9399,-122"/>
<text text-anchor="middle" x="77" y="-99.8" font-family="Times,serif" font-size="14.00" fill="#000000">AppComponent</text>
</g>
<!-- AppModule -->
<g id="node2" class="node">
<title>AppModule</title>
<polygon fill="#8dd3c7" stroke="#000000" points="191.6571,-190 188.6571,-194 167.6571,-194 164.6571,-190 108.3429,-190 108.3429,-154 191.6571,-154 191.6571,-190"/>
<text text-anchor="middle" x="150" y="-167.8" font-family="Times,serif" font-size="14.00" fill="#000000">AppModule</text>
</g>
<!-- AppComponent&#45;&gt;AppModule -->
<g id="edge1" class="edge">
<title>AppComponent&#45;&gt;AppModule</title>
<path fill="none" stroke="#000000" d="M122.5369,-122.2228C122.5369,-122.2228 122.5369,-143.7269 122.5369,-143.7269"/>
<polygon fill="#000000" stroke="#000000" points="119.037,-143.7269 122.5369,-153.7269 126.037,-143.727 119.037,-143.7269"/>
</g>
<!-- AppComponent&#45;&gt;AppModule -->
<g id="edge4" class="edge">
<title>AppComponent&#45;&gt;AppModule</title>
<path fill="none" stroke="#000000" d="M115.3544,-122.2228C115.3544,-122.2228 115.3544,-143.7269 115.3544,-143.7269"/>
<polygon fill="#000000" stroke="#000000" points="111.8545,-143.7269 115.3544,-153.7269 118.8545,-143.727 111.8545,-143.7269"/>
</g>
<!-- AppComponent  -->
<g id="node4" class="node">
<title>AppComponent </title>
<polygon fill="#80b1d3" stroke="#000000" points="204.439,-258 95.561,-258 95.561,-222 204.439,-222 204.439,-258"/>
<text text-anchor="middle" x="150" y="-235.8" font-family="Times,serif" font-size="14.00" fill="#000000">AppComponent </text>
</g>
<!-- AppModule&#45;&gt;AppComponent  -->
<g id="edge3" class="edge">
<title>AppModule&#45;&gt;AppComponent </title>
<path fill="none" stroke="#000000" stroke-dasharray="1,5" d="M136.0573,-190.2228C136.0573,-190.2228 136.0573,-211.7269 136.0573,-211.7269"/>
<polygon fill="#000000" stroke="#000000" points="132.5574,-211.7269 136.0573,-221.7269 139.5574,-211.727 132.5574,-211.7269"/>
</g>
<!-- AppModule&#45;&gt;AppComponent  -->
<g id="edge6" class="edge">
<title>AppModule&#45;&gt;AppComponent </title>
<path fill="none" stroke="#000000" stroke-dasharray="1,5" d="M163.9427,-190.2228C163.9427,-190.2228 163.9427,-211.7269 163.9427,-211.7269"/>
<polygon fill="#000000" stroke="#000000" points="160.4428,-211.7269 163.9427,-221.7269 167.4428,-211.727 160.4428,-211.7269"/>
</g>
<!-- QueryBuilderModule -->
<g id="node3" class="node">
<title>QueryBuilderModule</title>
<polygon fill="#8dd3c7" stroke="#000000" points="290.0254,-122 287.0254,-126 266.0254,-126 263.0254,-122 153.9746,-122 153.9746,-86 290.0254,-86 290.0254,-122"/>
<text text-anchor="middle" x="222" y="-99.8" font-family="Times,serif" font-size="14.00" fill="#000000">QueryBuilderModule</text>
</g>
<!-- QueryBuilderModule&#45;&gt;AppModule -->
<g id="edge2" class="edge">
<title>QueryBuilderModule&#45;&gt;AppModule</title>
<path fill="none" stroke="#000000" d="M166.4345,-122.2228C166.4345,-122.2228 166.4345,-143.7269 166.4345,-143.7269"/>
<polygon fill="#000000" stroke="#000000" points="162.9346,-143.7269 166.4345,-153.7269 169.9346,-143.727 162.9346,-143.7269"/>
</g>
<!-- QueryBuilderModule&#45;&gt;AppModule -->
<g id="edge5" class="edge">
<title>QueryBuilderModule&#45;&gt;AppModule</title>
<path fill="none" stroke="#000000" d="M179.1314,-122.2228C179.1314,-122.2228 179.1314,-143.7269 179.1314,-143.7269"/>
<polygon fill="#000000" stroke="#000000" points="175.6315,-143.7269 179.1314,-153.7269 182.6315,-143.727 175.6315,-143.7269"/>
</g>
<!-- QueryBuilderComponent  -->
<g id="node6" class="node">
<title>QueryBuilderComponent </title>
<polygon fill="#fb8072" stroke="#000000" points="491.8073,-190 330.1927,-190 330.1927,-154 491.8073,-154 491.8073,-190"/>
<text text-anchor="middle" x="411" y="-167.8" font-family="Times,serif" font-size="14.00" fill="#000000">QueryBuilderComponent </text>
</g>
<!-- QueryBuilderModule&#45;&gt;QueryBuilderComponent  -->
<g id="edge8" class="edge">
<title>QueryBuilderModule&#45;&gt;QueryBuilderComponent </title>
<path fill="none" stroke="#000000" stroke-dasharray="5,2" d="M261.6647,-122.2667C261.6647,-140.5552 261.6647,-166 261.6647,-166 261.6647,-166 319.7773,-166 319.7773,-166"/>
<polygon fill="#000000" stroke="#000000" points="319.7773,-169.5001 329.7773,-166 319.7772,-162.5001 319.7773,-169.5001"/>
</g>
<!-- QueryBuilderModule&#45;&gt;QueryBuilderComponent  -->
<g id="edge10" class="edge">
<title>QueryBuilderModule&#45;&gt;QueryBuilderComponent </title>
<path fill="none" stroke="#000000" stroke-dasharray="5,2" d="M233.0671,-122.2921C233.0671,-144.2057 233.0671,-178 233.0671,-178 233.0671,-178 320.1036,-178 320.1036,-178"/>
<polygon fill="#000000" stroke="#000000" points="320.1037,-181.5001 330.1036,-178 320.1036,-174.5001 320.1037,-181.5001"/>
</g>
<!-- QueryBuilderComponent -->
<g id="node5" class="node">
<title>QueryBuilderComponent</title>
<polygon fill="#ffffb3" stroke="#000000" points="674.3075,-190 515.6925,-190 515.6925,-154 674.3075,-154 674.3075,-190"/>
<text text-anchor="middle" x="595" y="-167.8" font-family="Times,serif" font-size="14.00" fill="#000000">QueryBuilderComponent</text>
</g>
<!-- QueryBuilderComponent&#45;&gt;QueryBuilderModule -->
<g id="edge7" class="edge">
<title>QueryBuilderComponent&#45;&gt;QueryBuilderModule</title>
<path fill="none" stroke="#000000" d="M621.3845,-153.7079C621.3845,-131.7943 621.3845,-98 621.3845,-98 621.3845,-98 300.2029,-98 300.2029,-98"/>
<polygon fill="#000000" stroke="#000000" points="300.2029,-94.5001 290.2029,-98 300.2028,-101.5001 300.2029,-94.5001"/>
</g>
<!-- QueryBuilderComponent&#45;&gt;QueryBuilderModule -->
<g id="edge9" class="edge">
<title>QueryBuilderComponent&#45;&gt;QueryBuilderModule</title>
<path fill="none" stroke="#000000" d="M568.6155,-153.7333C568.6155,-135.4448 568.6155,-110 568.6155,-110 568.6155,-110 300.0665,-110 300.0665,-110"/>
<polygon fill="#000000" stroke="#000000" points="300.0665,-106.5001 290.0665,-110 300.0665,-113.5001 300.0665,-106.5001"/>
</g>
</g>
</svg>
