<?xml version="1.0" encoding="UTF-8" standalone="no"?>
<!DOCTYPE svg PUBLIC "-//W3C//DTD SVG 1.1//EN"
 "http://www.w3.org/Graphics/SVG/1.1/DTD/svg11.dtd">
<!-- Generated by graphviz version 2.40.1 (20161225.0304)
 -->
<!-- Title: dependencies Pages: 1 -->
<svg width="5792pt" height="284pt"
 viewBox="0.00 0.00 5792.00 284.00" xmlns="http://www.w3.org/2000/svg" xmlns:xlink="http://www.w3.org/1999/xlink">
<g id="graph0" class="graph" transform="scale(1 1) rotate(0) translate(4 280)">
<title>dependencies</title>
<polygon fill="#ffffff" stroke="transparent" points="-4,4 -4,-280 5788,-280 5788,4 -4,4"/>
<text text-anchor="start" x="2871.0091" y="-42.4" font-family="sans-serif" font-weight="bold" font-size="14.00" fill="#000000">Legend</text>
<polygon fill="#ffffb3" stroke="transparent" points="2658,-10 2658,-30 2678,-30 2678,-10 2658,-10"/>
<text text-anchor="start" x="2681.629" y="-15.4" font-family="sans-serif" font-size="14.00" fill="#000000"> &#160;Declarations</text>
<polygon fill="#8dd3c7" stroke="transparent" points="2771,-10 2771,-30 2791,-30 2791,-10 2771,-10"/>
<text text-anchor="start" x="2794.7251" y="-15.4" font-family="sans-serif" font-size="14.00" fill="#000000"> &#160;Module</text>
<polygon fill="#80b1d3" stroke="transparent" points="2857,-10 2857,-30 2877,-30 2877,-10 2857,-10"/>
<text text-anchor="start" x="2880.7812" y="-15.4" font-family="sans-serif" font-size="14.00" fill="#000000"> &#160;Bootstrap</text>
<polygon fill="#fdb462" stroke="transparent" points="2954,-10 2954,-30 2974,-30 2974,-10 2954,-10"/>
<text text-anchor="start" x="2977.6732" y="-15.4" font-family="sans-serif" font-size="14.00" fill="#000000"> &#160;Providers</text>
<polygon fill="#fb8072" stroke="transparent" points="3050,-10 3050,-30 3070,-30 3070,-10 3050,-10"/>
<text text-anchor="start" x="3073.7258" y="-15.4" font-family="sans-serif" font-size="14.00" fill="#000000"> &#160;Exports</text>
<g id="clust1" class="cluster">
<title>cluster_AppModule</title>
<polygon fill="none" stroke="#000000" stroke-dasharray="1,5" points="8,-70 8,-268 1999,-268 1999,-70 8,-70"/>
</g>
<g id="clust2" class="cluster">
<title>cluster_AppModule_declarations</title>
<polygon fill="none" stroke="#000000" points="16,-78 16,-130 138,-130 138,-78 16,-78"/>
</g>
<g id="clust4" class="cluster">
<title>cluster_AppModule_imports</title>
<polygon fill="none" stroke="#000000" points="146,-78 146,-195 1991,-195 1991,-78 146,-78"/>
</g>
<g id="clust6" class="cluster">
<title>cluster_AppModule_bootstrap</title>
<polygon fill="none" stroke="#000000" points="34,-208 34,-260 158,-260 158,-208 34,-208"/>
</g>
<g id="clust8" class="cluster">
<title>cluster_QueryBuilderModule</title>
<polygon fill="none" stroke="#000000" stroke-dasharray="1,5" points="2007,-70 2007,-138 5776,-138 5776,-70 2007,-70"/>
</g>
<g id="clust9" class="cluster">
<title>cluster_QueryBuilderModule_declarations</title>
<polygon fill="none" stroke="#000000" points="3981,-78 3981,-130 5768,-130 5768,-78 3981,-78"/>
</g>
<g id="clust20" class="cluster">
<title>cluster_QueryBuilderModule_imports</title>
<polygon fill="none" stroke="#000000" points="3845,-78 3845,-130 3973,-130 3973,-78 3845,-78"/>
</g>
<g id="clust21" class="cluster">
<title>cluster_QueryBuilderModule_exports</title>
<polygon fill="none" stroke="#000000" points="2015,-78 2015,-130 3837,-130 3837,-78 2015,-78"/>
</g>
<!-- AppComponent -->
<g id="node1" class="node">
<title>AppComponent</title>
<polygon fill="#ffffb3" stroke="#000000" points="129.9399,-122 24.0601,-122 24.0601,-86 129.9399,-86 129.9399,-122"/>
<text text-anchor="middle" x="77" y="-99.8" font-family="Times,serif" font-size="14.00" fill="#000000">AppComponent</text>
</g>
<!-- AppModule -->
<g id="node2" class="node">
<title>AppModule</title>
<polygon fill="#8dd3c7" stroke="#000000" points="137.6571,-187 134.6571,-191 113.6571,-191 110.6571,-187 54.3429,-187 54.3429,-151 137.6571,-151 137.6571,-187"/>
<text text-anchor="middle" x="96" y="-164.8" font-family="Times,serif" font-size="14.00" fill="#000000">AppModule</text>
</g>
<!-- AppComponent&#45;&gt;AppModule -->
<g id="edge1" class="edge">
<title>AppComponent&#45;&gt;AppModule</title>
<path fill="none" stroke="#000000" d="M91.9457,-122.1061C91.9457,-122.1061 91.9457,-140.991 91.9457,-140.991"/>
<polygon fill="#000000" stroke="#000000" points="88.4457,-140.9909 91.9457,-150.991 95.4457,-140.991 88.4457,-140.9909"/>
</g>
<!-- AppComponent  -->
<g id="node17" class="node">
<title>AppComponent </title>
<polygon fill="#80b1d3" stroke="#000000" points="150.439,-252 41.561,-252 41.561,-216 150.439,-216 150.439,-252"/>
<text text-anchor="middle" x="96" y="-229.8" font-family="Times,serif" font-size="14.00" fill="#000000">AppComponent </text>
</g>
<!-- AppModule&#45;&gt;AppComponent  -->
<g id="edge16" class="edge">
<title>AppModule&#45;&gt;AppComponent </title>
<path fill="none" stroke="#000000" stroke-dasharray="1,5" d="M96,-187.1061C96,-187.1061 96,-205.991 96,-205.991"/>
<polygon fill="#000000" stroke="#000000" points="92.5001,-205.9909 96,-215.991 99.5001,-205.991 92.5001,-205.9909"/>
</g>
<!-- BrowserModule -->
<g id="node3" class="node">
<title>BrowserModule</title>
<polygon fill="#8dd3c7" stroke="#000000" points="1869.4734,-122 1866.4734,-126 1845.4734,-126 1842.4734,-122 1762.5266,-122 1762.5266,-86 1869.4734,-86 1869.4734,-122"/>
<text text-anchor="middle" x="1816" y="-99.8" font-family="Times,serif" font-size="14.00" fill="#000000">BrowserModule</text>
</g>
<!-- BrowserModule&#45;&gt;AppModule -->
<g id="edge2" class="edge">
<title>BrowserModule&#45;&gt;AppModule</title>
<path fill="none" stroke="#000000" d="M1804.6255,-122.0908C1804.6255,-145.1328 1804.6255,-182 1804.6255,-182 1804.6255,-182 147.8116,-182 147.8116,-182"/>
<polygon fill="#000000" stroke="#000000" points="147.8117,-178.5001 137.8116,-182 147.8116,-185.5001 147.8117,-178.5001"/>
</g>
<!-- FormsModule -->
<g id="node4" class="node">
<title>FormsModule</title>
<polygon fill="#8dd3c7" stroke="#000000" points="1982.8288,-122 1979.8288,-126 1958.8288,-126 1955.8288,-122 1887.1712,-122 1887.1712,-86 1982.8288,-86 1982.8288,-122"/>
<text text-anchor="middle" x="1935" y="-99.8" font-family="Times,serif" font-size="14.00" fill="#000000">FormsModule</text>
</g>
<!-- FormsModule&#45;&gt;AppModule -->
<g id="edge3" class="edge">
<title>FormsModule&#45;&gt;AppModule</title>
<path fill="none" stroke="#000000" d="M1919.112,-122.0449C1919.112,-129.749 1919.112,-137 1919.112,-137 1919.112,-137 135.1253,-137 135.1253,-137 135.1253,-137 135.1253,-140.7566 135.1253,-140.7566"/>
<polygon fill="#000000" stroke="#000000" points="131.6254,-140.7566 135.1253,-150.7566 138.6254,-140.7566 131.6254,-140.7566"/>
</g>
<!-- QueryBuilderModule -->
<g id="node16" class="node">
<title>QueryBuilderModule</title>
<polygon fill="#8dd3c7" stroke="#000000" points="1983.0254,-187 1980.0254,-191 1959.0254,-191 1956.0254,-187 1846.9746,-187 1846.9746,-151 1983.0254,-151 1983.0254,-187"/>
<text text-anchor="middle" x="1915" y="-164.8" font-family="Times,serif" font-size="14.00" fill="#000000">QueryBuilderModule</text>
</g>
<!-- FormsModule&#45;&gt;QueryBuilderModule -->
<g id="edge28" class="edge">
<title>FormsModule&#45;&gt;QueryBuilderModule</title>
<path fill="none" stroke="#000000" d="M1950.888,-122.1061C1950.888,-122.1061 1950.888,-140.991 1950.888,-140.991"/>
<polygon fill="#000000" stroke="#000000" points="1947.3881,-140.9909 1950.888,-150.991 1954.3881,-140.991 1947.3881,-140.9909"/>
</g>
<!-- ReactiveFormsModule -->
<g id="node5" class="node">
<title>ReactiveFormsModule</title>
<polygon fill="#8dd3c7" stroke="#000000" points="1744.3047,-122 1741.3047,-126 1720.3047,-126 1717.3047,-122 1599.6953,-122 1599.6953,-86 1744.3047,-86 1744.3047,-122"/>
<text text-anchor="middle" x="1672" y="-99.8" font-family="Times,serif" font-size="14.00" fill="#000000">ReactiveFormsModule</text>
</g>
<!-- ReactiveFormsModule&#45;&gt;AppModule -->
<g id="edge4" class="edge">
<title>ReactiveFormsModule&#45;&gt;AppModule</title>
<path fill="none" stroke="#000000" d="M1672,-122.1554C1672,-144.3519 1672,-179 1672,-179 1672,-179 147.7482,-179 147.7482,-179"/>
<polygon fill="#000000" stroke="#000000" points="147.7483,-175.5001 137.7482,-179 147.7482,-182.5001 147.7483,-175.5001"/>
</g>
<!-- NoopAnimationsModule -->
<g id="node6" class="node">
<title>NoopAnimationsModule</title>
<polygon fill="#8dd3c7" stroke="#000000" points="1581.9846,-122 1578.9846,-126 1557.9846,-126 1554.9846,-122 1426.0154,-122 1426.0154,-86 1581.9846,-86 1581.9846,-122"/>
<text text-anchor="middle" x="1504" y="-99.8" font-family="Times,serif" font-size="14.00" fill="#000000">NoopAnimationsModule</text>
</g>
<!-- NoopAnimationsModule&#45;&gt;AppModule -->
<g id="edge5" class="edge">
<title>NoopAnimationsModule&#45;&gt;AppModule</title>
<path fill="none" stroke="#000000" d="M1504,-122.1686C1504,-143.498 1504,-176 1504,-176 1504,-176 147.7566,-176 147.7566,-176"/>
<polygon fill="#000000" stroke="#000000" points="147.7567,-172.5001 137.7566,-176 147.7566,-179.5001 147.7567,-172.5001"/>
</g>
<!-- MatButtonModule -->
<g id="node7" class="node">
<title>MatButtonModule</title>
<polygon fill="#8dd3c7" stroke="#000000" points="1408.2176,-122 1405.2176,-126 1384.2176,-126 1381.2176,-122 1287.7824,-122 1287.7824,-86 1408.2176,-86 1408.2176,-122"/>
<text text-anchor="middle" x="1348" y="-99.8" font-family="Times,serif" font-size="14.00" fill="#000000">MatButtonModule</text>
</g>
<!-- MatButtonModule&#45;&gt;AppModule -->
<g id="edge6" class="edge">
<title>MatButtonModule&#45;&gt;AppModule</title>
<path fill="none" stroke="#000000" d="M1348,-122.0267C1348,-142.7672 1348,-174 1348,-174 1348,-174 148.0143,-174 148.0143,-174"/>
<polygon fill="#000000" stroke="#000000" points="148.0143,-170.5001 138.0143,-174 148.0142,-177.5001 148.0143,-170.5001"/>
</g>
<!-- MatCheckboxModule -->
<g id="node8" class="node">
<title>MatCheckboxModule</title>
<polygon fill="#8dd3c7" stroke="#000000" points="1269.3655,-122 1266.3655,-126 1245.3655,-126 1242.3655,-122 1130.6345,-122 1130.6345,-86 1269.3655,-86 1269.3655,-122"/>
<text text-anchor="middle" x="1200" y="-99.8" font-family="Times,serif" font-size="14.00" fill="#000000">MatCheckboxModule</text>
</g>
<!-- MatCheckboxModule&#45;&gt;AppModule -->
<g id="edge7" class="edge">
<title>MatCheckboxModule&#45;&gt;AppModule</title>
<path fill="none" stroke="#000000" d="M1200,-122.308C1200,-142.1455 1200,-171 1200,-171 1200,-171 147.93,-171 147.93,-171"/>
<polygon fill="#000000" stroke="#000000" points="147.93,-167.5001 137.93,-171 147.93,-174.5001 147.93,-167.5001"/>
</g>
<!-- MatSelectModule -->
<g id="node9" class="node">
<title>MatSelectModule</title>
<polygon fill="#8dd3c7" stroke="#000000" points="1112.3076,-122 1109.3076,-126 1088.3076,-126 1085.3076,-122 995.6924,-122 995.6924,-86 1112.3076,-86 1112.3076,-122"/>
<text text-anchor="middle" x="1054" y="-99.8" font-family="Times,serif" font-size="14.00" fill="#000000">MatSelectModule</text>
</g>
<!-- MatSelectModule&#45;&gt;AppModule -->
<g id="edge8" class="edge">
<title>MatSelectModule&#45;&gt;AppModule</title>
<path fill="none" stroke="#000000" d="M1054,-122.1686C1054,-141.0898 1054,-168 1054,-168 1054,-168 147.7801,-168 147.7801,-168"/>
<polygon fill="#000000" stroke="#000000" points="147.7801,-164.5001 137.7801,-168 147.78,-171.5001 147.7801,-164.5001"/>
</g>
<!-- MatInputModule -->
<g id="node10" class="node">
<title>MatInputModule</title>
<polygon fill="#8dd3c7" stroke="#000000" points="977.6513,-122 974.6513,-126 953.6513,-126 950.6513,-122 866.3487,-122 866.3487,-86 977.6513,-86 977.6513,-122"/>
<text text-anchor="middle" x="922" y="-99.8" font-family="Times,serif" font-size="14.00" fill="#000000">MatInputModule</text>
</g>
<!-- MatInputModule&#45;&gt;AppModule -->
<g id="edge9" class="edge">
<title>MatInputModule&#45;&gt;AppModule</title>
<path fill="none" stroke="#000000" d="M922,-122.302C922,-140.2699 922,-165 922,-165 922,-165 147.8119,-165 147.8119,-165"/>
<polygon fill="#000000" stroke="#000000" points="147.8119,-161.5001 137.8119,-165 147.8118,-168.5001 147.8119,-161.5001"/>
</g>
<!-- MatDatepickerModule -->
<g id="node11" class="node">
<title>MatDatepickerModule</title>
<polygon fill="#8dd3c7" stroke="#000000" points="847.5072,-122 844.5072,-126 823.5072,-126 820.5072,-122 704.4928,-122 704.4928,-86 847.5072,-86 847.5072,-122"/>
<text text-anchor="middle" x="776" y="-99.8" font-family="Times,serif" font-size="14.00" fill="#000000">MatDatepickerModule</text>
</g>
<!-- MatDatepickerModule&#45;&gt;AppModule -->
<g id="edge10" class="edge">
<title>MatDatepickerModule&#45;&gt;AppModule</title>
<path fill="none" stroke="#000000" d="M776,-122.0225C776,-139.3734 776,-163 776,-163 776,-163 147.7683,-163 147.7683,-163"/>
<polygon fill="#000000" stroke="#000000" points="147.7683,-159.5001 137.7683,-163 147.7683,-166.5001 147.7683,-159.5001"/>
</g>
<!-- MatNativeDateModule -->
<g id="node12" class="node">
<title>MatNativeDateModule</title>
<polygon fill="#8dd3c7" stroke="#000000" points="685.8431,-122 682.8431,-126 661.8431,-126 658.8431,-122 540.1569,-122 540.1569,-86 685.8431,-86 685.8431,-122"/>
<text text-anchor="middle" x="613" y="-99.8" font-family="Times,serif" font-size="14.00" fill="#000000">MatNativeDateModule</text>
</g>
<!-- MatNativeDateModule&#45;&gt;AppModule -->
<g id="edge11" class="edge">
<title>MatNativeDateModule&#45;&gt;AppModule</title>
<path fill="none" stroke="#000000" d="M613,-122.027C613,-138.3976 613,-160 613,-160 613,-160 147.8703,-160 147.8703,-160"/>
<polygon fill="#000000" stroke="#000000" points="147.8704,-156.5001 137.8703,-160 147.8703,-163.5001 147.8704,-156.5001"/>
</g>
<!-- MatRadioModule -->
<g id="node13" class="node">
<title>MatRadioModule</title>
<polygon fill="#8dd3c7" stroke="#000000" points="521.5423,-122 518.5423,-126 497.5423,-126 494.5423,-122 406.4577,-122 406.4577,-86 521.5423,-86 521.5423,-122"/>
<text text-anchor="middle" x="464" y="-99.8" font-family="Times,serif" font-size="14.00" fill="#000000">MatRadioModule</text>
</g>
<!-- MatRadioModule&#45;&gt;AppModule -->
<g id="edge12" class="edge">
<title>MatRadioModule&#45;&gt;AppModule</title>
<path fill="none" stroke="#000000" d="M464,-122.2396C464,-137.5706 464,-157 464,-157 464,-157 147.856,-157 147.856,-157"/>
<polygon fill="#000000" stroke="#000000" points="147.856,-153.5001 137.856,-157 147.856,-160.5001 147.856,-153.5001"/>
</g>
<!-- MatIconModule -->
<g id="node14" class="node">
<title>MatIconModule</title>
<polygon fill="#8dd3c7" stroke="#000000" points="388.4748,-122 385.4748,-126 364.4748,-126 361.4748,-122 281.5252,-122 281.5252,-86 388.4748,-86 388.4748,-122"/>
<text text-anchor="middle" x="335" y="-99.8" font-family="Times,serif" font-size="14.00" fill="#000000">MatIconModule</text>
</g>
<!-- MatIconModule&#45;&gt;AppModule -->
<g id="edge13" class="edge">
<title>MatIconModule&#45;&gt;AppModule</title>
<path fill="none" stroke="#000000" d="M335,-122.0511C335,-136.373 335,-154 335,-154 335,-154 147.9041,-154 147.9041,-154"/>
<polygon fill="#000000" stroke="#000000" points="147.9041,-150.5001 137.9041,-154 147.9041,-157.5001 147.9041,-150.5001"/>
</g>
<!-- MatCardModule -->
<g id="node15" class="node">
<title>MatCardModule</title>
<polygon fill="#8dd3c7" stroke="#000000" points="263.8118,-122 260.8118,-126 239.8118,-126 236.8118,-122 154.1882,-122 154.1882,-86 263.8118,-86 263.8118,-122"/>
<text text-anchor="middle" x="209" y="-99.8" font-family="Times,serif" font-size="14.00" fill="#000000">MatCardModule</text>
</g>
<!-- MatCardModule&#45;&gt;AppModule -->
<g id="edge14" class="edge">
<title>MatCardModule&#45;&gt;AppModule</title>
<path fill="none" stroke="#000000" d="M154.1616,-104C141.8871,-104 132.4224,-104 132.4224,-104 132.4224,-104 132.4224,-140.8939 132.4224,-140.8939"/>
<polygon fill="#000000" stroke="#000000" points="128.9225,-140.8938 132.4224,-150.8939 135.9225,-140.8939 128.9225,-140.8938"/>
</g>
<!-- QueryBuilderModule&#45;&gt;AppModule -->
<g id="edge15" class="edge">
<title>QueryBuilderModule&#45;&gt;AppModule</title>
<path fill="none" stroke="#000000" d="M1846.739,-185C1846.739,-185 147.6985,-185 147.6985,-185"/>
<polygon fill="#000000" stroke="#000000" points="147.6985,-181.5001 137.6985,-185 147.6985,-188.5001 147.6985,-181.5001"/>
</g>
<!-- QueryBuilderComponent  -->
<g id="node29" class="node">
<title>QueryBuilderComponent </title>
<polygon fill="#fb8072" stroke="#000000" points="3828.8073,-122 3667.1927,-122 3667.1927,-86 3828.8073,-86 3828.8073,-122"/>
<text text-anchor="middle" x="3748" y="-99.8" font-family="Times,serif" font-size="14.00" fill="#000000">QueryBuilderComponent </text>
</g>
<!-- QueryBuilderModule&#45;&gt;QueryBuilderComponent  -->
<g id="edge29" class="edge">
<title>QueryBuilderModule&#45;&gt;QueryBuilderComponent </title>
<path fill="none" stroke="#000000" stroke-dasharray="5,2" d="M1983.2349,-168C2315.4835,-168 3748,-168 3748,-168 3748,-168 3748,-132.1686 3748,-132.1686"/>
<polygon fill="#000000" stroke="#000000" points="3751.5001,-132.1686 3748,-122.1686 3744.5001,-132.1687 3751.5001,-132.1686"/>
</g>
<!-- QueryInputDirective  -->
<g id="node30" class="node">
<title>QueryInputDirective </title>
<polygon fill="#fb8072" stroke="#000000" points="3649.1158,-122 3512.8842,-122 3512.8842,-86 3649.1158,-86 3649.1158,-122"/>
<text text-anchor="middle" x="3581" y="-99.8" font-family="Times,serif" font-size="14.00" fill="#000000">QueryInputDirective </text>
</g>
<!-- QueryBuilderModule&#45;&gt;QueryInputDirective  -->
<g id="edge30" class="edge">
<title>QueryBuilderModule&#45;&gt;QueryInputDirective </title>
<path fill="none" stroke="#000000" stroke-dasharray="5,2" d="M1983.1538,-166C2296.1987,-166 3581,-166 3581,-166 3581,-166 3581,-132.2667 3581,-132.2667"/>
<polygon fill="#000000" stroke="#000000" points="3584.5001,-132.2667 3581,-122.2667 3577.5001,-132.2667 3584.5001,-132.2667"/>
</g>
<!-- QueryOperatorDirective  -->
<g id="node31" class="node">
<title>QueryOperatorDirective </title>
<polygon fill="#fb8072" stroke="#000000" points="3495.3125,-122 3338.6875,-122 3338.6875,-86 3495.3125,-86 3495.3125,-122"/>
<text text-anchor="middle" x="3417" y="-99.8" font-family="Times,serif" font-size="14.00" fill="#000000">QueryOperatorDirective </text>
</g>
<!-- QueryBuilderModule&#45;&gt;QueryOperatorDirective  -->
<g id="edge31" class="edge">
<title>QueryBuilderModule&#45;&gt;QueryOperatorDirective </title>
<path fill="none" stroke="#000000" stroke-dasharray="5,2" d="M1983.4408,-165C2277.2759,-165 3417,-165 3417,-165 3417,-165 3417,-132.302 3417,-132.302"/>
<polygon fill="#000000" stroke="#000000" points="3420.5001,-132.302 3417,-122.302 3413.5001,-132.302 3420.5001,-132.302"/>
</g>
<!-- QueryFieldDirective  -->
<g id="node32" class="node">
<title>QueryFieldDirective </title>
<polygon fill="#fb8072" stroke="#000000" points="3320.8434,-122 3185.1566,-122 3185.1566,-86 3320.8434,-86 3320.8434,-122"/>
<text text-anchor="middle" x="3253" y="-99.8" font-family="Times,serif" font-size="14.00" fill="#000000">QueryFieldDirective </text>
</g>
<!-- QueryBuilderModule&#45;&gt;QueryFieldDirective  -->
<g id="edge32" class="edge">
<title>QueryBuilderModule&#45;&gt;QueryFieldDirective </title>
<path fill="none" stroke="#000000" stroke-dasharray="5,2" d="M1983.1911,-163C2255.8495,-163 3253,-163 3253,-163 3253,-163 3253,-132.0225 3253,-132.0225"/>
<polygon fill="#000000" stroke="#000000" points="3256.5001,-132.0225 3253,-122.0225 3249.5001,-132.0226 3256.5001,-132.0225"/>
</g>
<!-- QueryEntityDirective  -->
<g id="node33" class="node">
<title>QueryEntityDirective </title>
<polygon fill="#fb8072" stroke="#000000" points="3167.2892,-122 3026.7108,-122 3026.7108,-86 3167.2892,-86 3167.2892,-122"/>
<text text-anchor="middle" x="3097" y="-99.8" font-family="Times,serif" font-size="14.00" fill="#000000">QueryEntityDirective </text>
</g>
<!-- QueryBuilderModule&#45;&gt;QueryEntityDirective  -->
<g id="edge33" class="edge">
<title>QueryBuilderModule&#45;&gt;QueryEntityDirective </title>
<path fill="none" stroke="#000000" stroke-dasharray="5,2" d="M1983.226,-161C2234.9406,-161 3097,-161 3097,-161 3097,-161 3097,-132.0352 3097,-132.0352"/>
<polygon fill="#000000" stroke="#000000" points="3100.5001,-132.0351 3097,-122.0352 3093.5001,-132.0352 3100.5001,-132.0351"/>
</g>
<!-- QueryButtonGroupDirective  -->
<g id="node34" class="node">
<title>QueryButtonGroupDirective </title>
<polygon fill="#fb8072" stroke="#000000" points="3008.4502,-122 2827.5498,-122 2827.5498,-86 3008.4502,-86 3008.4502,-122"/>
<text text-anchor="middle" x="2918" y="-99.8" font-family="Times,serif" font-size="14.00" fill="#000000">QueryButtonGroupDirective </text>
</g>
<!-- QueryBuilderModule&#45;&gt;QueryButtonGroupDirective  -->
<g id="edge34" class="edge">
<title>QueryBuilderModule&#45;&gt;QueryButtonGroupDirective </title>
<path fill="none" stroke="#000000" stroke-dasharray="5,2" d="M1983.1517,-160C2208.9003,-160 2918,-160 2918,-160 2918,-160 2918,-132.027 2918,-132.027"/>
<polygon fill="#000000" stroke="#000000" points="2921.5001,-132.027 2918,-122.027 2914.5001,-132.027 2921.5001,-132.027"/>
</g>
<!-- QuerySwitchGroupDirective  -->
<g id="node35" class="node">
<title>QuerySwitchGroupDirective </title>
<polygon fill="#fb8072" stroke="#000000" points="2809.7169,-122 2628.2831,-122 2628.2831,-86 2809.7169,-86 2809.7169,-122"/>
<text text-anchor="middle" x="2719" y="-99.8" font-family="Times,serif" font-size="14.00" fill="#000000">QuerySwitchGroupDirective </text>
</g>
<!-- QueryBuilderModule&#45;&gt;QuerySwitchGroupDirective  -->
<g id="edge35" class="edge">
<title>QueryBuilderModule&#45;&gt;QuerySwitchGroupDirective </title>
<path fill="none" stroke="#000000" stroke-dasharray="5,2" d="M1983.2018,-158C2177.334,-158 2719,-158 2719,-158 2719,-158 2719,-132.2819 2719,-132.2819"/>
<polygon fill="#000000" stroke="#000000" points="2722.5001,-132.2819 2719,-122.2819 2715.5001,-132.282 2722.5001,-132.2819"/>
</g>
<!-- QueryRemoveButtonDirective  -->
<g id="node36" class="node">
<title>QueryRemoveButtonDirective </title>
<polygon fill="#fb8072" stroke="#000000" points="2610.8391,-122 2419.1609,-122 2419.1609,-86 2610.8391,-86 2610.8391,-122"/>
<text text-anchor="middle" x="2515" y="-99.8" font-family="Times,serif" font-size="14.00" fill="#000000">QueryRemoveButtonDirective </text>
</g>
<!-- QueryBuilderModule&#45;&gt;QueryRemoveButtonDirective  -->
<g id="edge36" class="edge">
<title>QueryBuilderModule&#45;&gt;QueryRemoveButtonDirective </title>
<path fill="none" stroke="#000000" stroke-dasharray="5,2" d="M1983.2435,-156C2140.503,-156 2515,-156 2515,-156 2515,-156 2515,-132.1871 2515,-132.1871"/>
<polygon fill="#000000" stroke="#000000" points="2518.5001,-132.187 2515,-122.1871 2511.5001,-132.1871 2518.5001,-132.187"/>
</g>
<!-- QueryEmptyWarningDirective  -->
<g id="node37" class="node">
<title>QueryEmptyWarningDirective </title>
<polygon fill="#fb8072" stroke="#000000" points="2401.3788,-122 2208.6212,-122 2208.6212,-86 2401.3788,-86 2401.3788,-122"/>
<text text-anchor="middle" x="2305" y="-99.8" font-family="Times,serif" font-size="14.00" fill="#000000">QueryEmptyWarningDirective </text>
</g>
<!-- QueryBuilderModule&#45;&gt;QueryEmptyWarningDirective  -->
<g id="edge37" class="edge">
<title>QueryBuilderModule&#45;&gt;QueryEmptyWarningDirective </title>
<path fill="none" stroke="#000000" stroke-dasharray="5,2" d="M1983.3791,-155C2095.2294,-155 2305,-155 2305,-155 2305,-155 2305,-132.1243 2305,-132.1243"/>
<polygon fill="#000000" stroke="#000000" points="2308.5001,-132.1243 2305,-122.1243 2301.5001,-132.1243 2308.5001,-132.1243"/>
</g>
<!-- QueryArrowIconDirective  -->
<g id="node38" class="node">
<title>QueryArrowIconDirective </title>
<polygon fill="#fb8072" stroke="#000000" points="2190.9742,-122 2023.0258,-122 2023.0258,-86 2190.9742,-86 2190.9742,-122"/>
<text text-anchor="middle" x="2107" y="-99.8" font-family="Times,serif" font-size="14.00" fill="#000000">QueryArrowIconDirective </text>
</g>
<!-- QueryBuilderModule&#45;&gt;QueryArrowIconDirective  -->
<g id="edge38" class="edge">
<title>QueryBuilderModule&#45;&gt;QueryArrowIconDirective </title>
<path fill="none" stroke="#000000" stroke-dasharray="5,2" d="M1983.2326,-153C2038.4189,-153 2107,-153 2107,-153 2107,-153 2107,-132.2458 2107,-132.2458"/>
<polygon fill="#000000" stroke="#000000" points="2110.5001,-132.2458 2107,-122.2458 2103.5001,-132.2458 2110.5001,-132.2458"/>
</g>
<!-- QueryBuilderComponent -->
<g id="node18" class="node">
<title>QueryBuilderComponent</title>
<polygon fill="#ffffb3" stroke="#000000" points="5760.3075,-122 5601.6925,-122 5601.6925,-86 5760.3075,-86 5760.3075,-122"/>
<text text-anchor="middle" x="5681" y="-99.8" font-family="Times,serif" font-size="14.00" fill="#000000">QueryBuilderComponent</text>
</g>
<!-- QueryBuilderComponent&#45;&gt;QueryBuilderModule -->
<g id="edge17" class="edge">
<title>QueryBuilderComponent&#45;&gt;QueryBuilderModule</title>
<path fill="none" stroke="#000000" d="M5681,-122.1985C5681,-146.3563 5681,-186 5681,-186 5681,-186 1993.175,-186 1993.175,-186"/>
<polygon fill="#000000" stroke="#000000" points="1993.175,-182.5001 1983.175,-186 1993.1749,-189.5001 1993.175,-182.5001"/>
</g>
<!-- QueryInputDirective -->
<g id="node19" class="node">
<title>QueryInputDirective</title>
<polygon fill="#ffffb3" stroke="#000000" points="5584.1164,-122 5451.8836,-122 5451.8836,-86 5584.1164,-86 5584.1164,-122"/>
<text text-anchor="middle" x="5518" y="-99.8" font-family="Times,serif" font-size="14.00" fill="#000000">QueryInputDirective</text>
</g>
<!-- QueryInputDirective&#45;&gt;QueryBuilderModule -->
<g id="edge18" class="edge">
<title>QueryInputDirective&#45;&gt;QueryBuilderModule</title>
<path fill="none" stroke="#000000" d="M5518,-122.1532C5518,-145.7566 5518,-184 5518,-184 5518,-184 1993.3605,-184 1993.3605,-184"/>
<polygon fill="#000000" stroke="#000000" points="1993.3606,-180.5001 1983.3605,-184 1993.3605,-187.5001 1993.3606,-180.5001"/>
</g>
<!-- QueryOperatorDirective -->
<g id="node20" class="node">
<title>QueryOperatorDirective</title>
<polygon fill="#ffffb3" stroke="#000000" points="5433.3123,-122 5280.6877,-122 5280.6877,-86 5433.3123,-86 5433.3123,-122"/>
<text text-anchor="middle" x="5357" y="-99.8" font-family="Times,serif" font-size="14.00" fill="#000000">QueryOperatorDirective</text>
</g>
<!-- QueryOperatorDirective&#45;&gt;QueryBuilderModule -->
<g id="edge19" class="edge">
<title>QueryOperatorDirective&#45;&gt;QueryBuilderModule</title>
<path fill="none" stroke="#000000" d="M5357,-122.3228C5357,-145.6602 5357,-183 5357,-183 5357,-183 1993.3679,-183 1993.3679,-183"/>
<polygon fill="#000000" stroke="#000000" points="1993.3679,-179.5001 1983.3679,-183 1993.3678,-186.5001 1993.3679,-179.5001"/>
</g>
<!-- QueryFieldDirective -->
<g id="node21" class="node">
<title>QueryFieldDirective</title>
<polygon fill="#ffffb3" stroke="#000000" points="5262.8431,-122 5131.1569,-122 5131.1569,-86 5262.8431,-86 5262.8431,-122"/>
<text text-anchor="middle" x="5197" y="-99.8" font-family="Times,serif" font-size="14.00" fill="#000000">QueryFieldDirective</text>
</g>
<!-- QueryFieldDirective&#45;&gt;QueryBuilderModule -->
<g id="edge20" class="edge">
<title>QueryFieldDirective&#45;&gt;QueryBuilderModule</title>
<path fill="none" stroke="#000000" d="M5197,-122.2479C5197,-145.0179 5197,-181 5197,-181 5197,-181 1993.1721,-181 1993.1721,-181"/>
<polygon fill="#000000" stroke="#000000" points="1993.1721,-177.5001 1983.1721,-181 1993.172,-184.5001 1993.1721,-177.5001"/>
</g>
<!-- QueryEntityDirective -->
<g id="node22" class="node">
<title>QueryEntityDirective</title>
<polygon fill="#ffffb3" stroke="#000000" points="5112.7893,-122 4975.2107,-122 4975.2107,-86 5112.7893,-86 5112.7893,-122"/>
<text text-anchor="middle" x="5044" y="-99.8" font-family="Times,serif" font-size="14.00" fill="#000000">QueryEntityDirective</text>
</g>
<!-- QueryEntityDirective&#45;&gt;QueryBuilderModule -->
<g id="edge21" class="edge">
<title>QueryEntityDirective&#45;&gt;QueryBuilderModule</title>
<path fill="none" stroke="#000000" d="M5044,-122.1554C5044,-144.3519 5044,-179 5044,-179 5044,-179 1993.2636,-179 1993.2636,-179"/>
<polygon fill="#000000" stroke="#000000" points="1993.2636,-175.5001 1983.2636,-179 1993.2635,-182.5001 1993.2636,-175.5001"/>
</g>
<!-- QueryButtonGroupDirective -->
<g id="node23" class="node">
<title>QueryButtonGroupDirective</title>
<polygon fill="#ffffb3" stroke="#000000" points="4957.4496,-122 4780.5504,-122 4780.5504,-86 4957.4496,-86 4957.4496,-122"/>
<text text-anchor="middle" x="4869" y="-99.8" font-family="Times,serif" font-size="14.00" fill="#000000">QueryButtonGroupDirective</text>
</g>
<!-- QueryButtonGroupDirective&#45;&gt;QueryBuilderModule -->
<g id="edge22" class="edge">
<title>QueryButtonGroupDirective&#45;&gt;QueryBuilderModule</title>
<path fill="none" stroke="#000000" d="M4869,-122.2921C4869,-144.2057 4869,-178 4869,-178 4869,-178 1993.314,-178 1993.314,-178"/>
<polygon fill="#000000" stroke="#000000" points="1993.3141,-174.5001 1983.314,-178 1993.314,-181.5001 1993.3141,-174.5001"/>
</g>
<!-- QuerySwitchGroupDirective -->
<g id="node24" class="node">
<title>QuerySwitchGroupDirective</title>
<polygon fill="#ffffb3" stroke="#000000" points="4762.717,-122 4585.283,-122 4585.283,-86 4762.717,-86 4762.717,-122"/>
<text text-anchor="middle" x="4674" y="-99.8" font-family="Times,serif" font-size="14.00" fill="#000000">QuerySwitchGroupDirective</text>
</g>
<!-- QuerySwitchGroupDirective&#45;&gt;QueryBuilderModule -->
<g id="edge23" class="edge">
<title>QuerySwitchGroupDirective&#45;&gt;QueryBuilderModule</title>
<path fill="none" stroke="#000000" d="M4674,-122.1686C4674,-143.498 4674,-176 4674,-176 4674,-176 1993.2004,-176 1993.2004,-176"/>
<polygon fill="#000000" stroke="#000000" points="1993.2004,-172.5001 1983.2004,-176 1993.2003,-179.5001 1993.2004,-172.5001"/>
</g>
<!-- QueryRemoveButtonDirective -->
<g id="node25" class="node">
<title>QueryRemoveButtonDirective</title>
<polygon fill="#ffffb3" stroke="#000000" points="4566.8389,-122 4379.1611,-122 4379.1611,-86 4566.8389,-86 4566.8389,-122"/>
<text text-anchor="middle" x="4473" y="-99.8" font-family="Times,serif" font-size="14.00" fill="#000000">QueryRemoveButtonDirective</text>
</g>
<!-- QueryRemoveButtonDirective&#45;&gt;QueryBuilderModule -->
<g id="edge24" class="edge">
<title>QueryRemoveButtonDirective&#45;&gt;QueryBuilderModule</title>
<path fill="none" stroke="#000000" d="M4473,-122.0267C4473,-142.7672 4473,-174 4473,-174 4473,-174 1993.0905,-174 1993.0905,-174"/>
<polygon fill="#000000" stroke="#000000" points="1993.0905,-170.5001 1983.0905,-174 1993.0905,-177.5001 1993.0905,-170.5001"/>
</g>
<!-- QueryEmptyWarningDirective -->
<g id="node26" class="node">
<title>QueryEmptyWarningDirective</title>
<polygon fill="#ffffb3" stroke="#000000" points="4360.8792,-122 4171.1208,-122 4171.1208,-86 4360.8792,-86 4360.8792,-122"/>
<text text-anchor="middle" x="4266" y="-99.8" font-family="Times,serif" font-size="14.00" fill="#000000">QueryEmptyWarningDirective</text>
</g>
<!-- QueryEmptyWarningDirective&#45;&gt;QueryBuilderModule -->
<g id="edge25" class="edge">
<title>QueryEmptyWarningDirective&#45;&gt;QueryBuilderModule</title>
<path fill="none" stroke="#000000" d="M4266,-122.1289C4266,-142.5724 4266,-173 4266,-173 4266,-173 1993.14,-173 1993.14,-173"/>
<polygon fill="#000000" stroke="#000000" points="1993.14,-169.5001 1983.14,-173 1993.14,-176.5001 1993.14,-169.5001"/>
</g>
<!-- QueryArrowIconDirective -->
<g id="node27" class="node">
<title>QueryArrowIconDirective</title>
<polygon fill="#ffffb3" stroke="#000000" points="4153.4749,-122 3988.5251,-122 3988.5251,-86 4153.4749,-86 4153.4749,-122"/>
<text text-anchor="middle" x="4071" y="-99.8" font-family="Times,serif" font-size="14.00" fill="#000000">QueryArrowIconDirective</text>
</g>
<!-- QueryArrowIconDirective&#45;&gt;QueryBuilderModule -->
<g id="edge26" class="edge">
<title>QueryArrowIconDirective&#45;&gt;QueryBuilderModule</title>
<path fill="none" stroke="#000000" d="M4071,-122.308C4071,-142.1455 4071,-171 4071,-171 4071,-171 1993.0857,-171 1993.0857,-171"/>
<polygon fill="#000000" stroke="#000000" points="1993.0857,-167.5001 1983.0857,-171 1993.0857,-174.5001 1993.0857,-167.5001"/>
</g>
<!-- CommonModule -->
<g id="node28" class="node">
<title>CommonModule</title>
<polygon fill="#8dd3c7" stroke="#000000" points="3964.6681,-122 3961.6681,-126 3940.6681,-126 3937.6681,-122 3853.3319,-122 3853.3319,-86 3964.6681,-86 3964.6681,-122"/>
<text text-anchor="middle" x="3909" y="-99.8" font-family="Times,serif" font-size="14.00" fill="#000000">CommonModule</text>
</g>
<!-- CommonModule&#45;&gt;QueryBuilderModule -->
<g id="edge27" class="edge">
<title>CommonModule&#45;&gt;QueryBuilderModule</title>
<path fill="none" stroke="#000000" d="M3909,-122.1061C3909,-141.3391 3909,-169 3909,-169 3909,-169 1993.0611,-169 1993.0611,-169"/>
<polygon fill="#000000" stroke="#000000" points="1993.0612,-165.5001 1983.0611,-169 1993.0611,-172.5001 1993.0612,-165.5001"/>
</g>
</g>
</svg>
