<?xml version="1.0" encoding="UTF-8" standalone="no"?>
<!DOCTYPE svg PUBLIC "-//W3C//DTD SVG 1.1//EN"
 "http://www.w3.org/Graphics/SVG/1.1/DTD/svg11.dtd">
<!-- Generated by graphviz version 2.40.1 (20161225.0304)
 -->
<!-- Title: dependencies Pages: 1 -->
<svg width="2168pt" height="284pt"
 viewBox="0.00 0.00 2168.00 284.00" xmlns="http://www.w3.org/2000/svg" xmlns:xlink="http://www.w3.org/1999/xlink">
<g id="graph0" class="graph" transform="scale(1 1) rotate(0) translate(4 280)">
<title>dependencies</title>
<polygon fill="#ffffff" stroke="transparent" points="-4,4 -4,-280 2164,-280 2164,4 -4,4"/>
<text text-anchor="start" x="1059.0091" y="-42.4" font-family="sans-serif" font-weight="bold" font-size="14.00" fill="#000000">Legend</text>
<polygon fill="#ffffb3" stroke="transparent" points="846,-10 846,-30 866,-30 866,-10 846,-10"/>
<text text-anchor="start" x="869.629" y="-15.4" font-family="sans-serif" font-size="14.00" fill="#000000"> &#160;Declarations</text>
<polygon fill="#8dd3c7" stroke="transparent" points="959,-10 959,-30 979,-30 979,-10 959,-10"/>
<text text-anchor="start" x="982.7251" y="-15.4" font-family="sans-serif" font-size="14.00" fill="#000000"> &#160;Module</text>
<polygon fill="#80b1d3" stroke="transparent" points="1045,-10 1045,-30 1065,-30 1065,-10 1045,-10"/>
<text text-anchor="start" x="1068.7812" y="-15.4" font-family="sans-serif" font-size="14.00" fill="#000000"> &#160;Bootstrap</text>
<polygon fill="#fdb462" stroke="transparent" points="1142,-10 1142,-30 1162,-30 1162,-10 1142,-10"/>
<text text-anchor="start" x="1165.6732" y="-15.4" font-family="sans-serif" font-size="14.00" fill="#000000"> &#160;Providers</text>
<polygon fill="#fb8072" stroke="transparent" points="1238,-10 1238,-30 1258,-30 1258,-10 1238,-10"/>
<text text-anchor="start" x="1261.7258" y="-15.4" font-family="sans-serif" font-size="14.00" fill="#000000"> &#160;Exports</text>
<g id="clust1" class="cluster">
<title>cluster_AppModule</title>
<polygon fill="none" stroke="#000000" stroke-dasharray="1,5" points="8,-70 8,-268 2152,-268 2152,-70 8,-70"/>
</g>
<g id="clust2" class="cluster">
<title>cluster_AppModule_declarations</title>
<polygon fill="none" stroke="#000000" points="2022,-78 2022,-130 2144,-130 2144,-78 2022,-78"/>
</g>
<g id="clust4" class="cluster">
<title>cluster_AppModule_imports</title>
<polygon fill="none" stroke="#000000" points="16,-78 16,-130 2014,-130 2014,-78 16,-78"/>
</g>
<g id="clust6" class="cluster">
<title>cluster_AppModule_bootstrap</title>
<polygon fill="none" stroke="#000000" points="1016,-208 1016,-260 1140,-260 1140,-208 1016,-208"/>
</g>
<!-- AppComponent -->
<g id="node1" class="node">
<title>AppComponent</title>
<polygon fill="#ffffb3" stroke="#000000" points="2135.9399,-122 2030.0601,-122 2030.0601,-86 2135.9399,-86 2135.9399,-122"/>
<text text-anchor="middle" x="2083" y="-99.8" font-family="Times,serif" font-size="14.00" fill="#000000">AppComponent</text>
</g>
<!-- AppModule -->
<g id="node2" class="node">
<title>AppModule</title>
<polygon fill="#8dd3c7" stroke="#000000" points="1119.6571,-187 1116.6571,-191 1095.6571,-191 1092.6571,-187 1036.3429,-187 1036.3429,-151 1119.6571,-151 1119.6571,-187"/>
<text text-anchor="middle" x="1078" y="-164.8" font-family="Times,serif" font-size="14.00" fill="#000000">AppModule</text>
</g>
<!-- AppComponent&#45;&gt;AppModule -->
<g id="edge1" class="edge">
<title>AppComponent&#45;&gt;AppModule</title>
<path fill="none" stroke="#000000" d="M2083,-122.3228C2083,-145.6602 2083,-183 2083,-183 2083,-183 1129.9041,-183 1129.9041,-183"/>
<polygon fill="#000000" stroke="#000000" points="1129.9041,-179.5001 1119.9041,-183 1129.9041,-186.5001 1129.9041,-179.5001"/>
</g>
<!-- AppComponent  -->
<g id="node17" class="node">
<title>AppComponent </title>
<polygon fill="#80b1d3" stroke="#000000" points="1132.439,-252 1023.561,-252 1023.561,-216 1132.439,-216 1132.439,-252"/>
<text text-anchor="middle" x="1078" y="-229.8" font-family="Times,serif" font-size="14.00" fill="#000000">AppComponent </text>
</g>
<!-- AppModule&#45;&gt;AppComponent  -->
<g id="edge16" class="edge">
<title>AppModule&#45;&gt;AppComponent </title>
<path fill="none" stroke="#000000" stroke-dasharray="1,5" d="M1078,-187.1061C1078,-187.1061 1078,-205.991 1078,-205.991"/>
<polygon fill="#000000" stroke="#000000" points="1074.5001,-205.9909 1078,-215.991 1081.5001,-205.991 1074.5001,-205.9909"/>
</g>
<!-- BrowserModule -->
<g id="node3" class="node">
<title>BrowserModule</title>
<polygon fill="#8dd3c7" stroke="#000000" points="2006.4734,-122 2003.4734,-126 1982.4734,-126 1979.4734,-122 1899.5266,-122 1899.5266,-86 2006.4734,-86 2006.4734,-122"/>
<text text-anchor="middle" x="1953" y="-99.8" font-family="Times,serif" font-size="14.00" fill="#000000">BrowserModule</text>
</g>
<!-- BrowserModule&#45;&gt;AppModule -->
<g id="edge2" class="edge">
<title>BrowserModule&#45;&gt;AppModule</title>
<path fill="none" stroke="#000000" d="M1953,-122.2921C1953,-144.2057 1953,-178 1953,-178 1953,-178 1129.9083,-178 1129.9083,-178"/>
<polygon fill="#000000" stroke="#000000" points="1129.9083,-174.5001 1119.9083,-178 1129.9082,-181.5001 1129.9083,-174.5001"/>
</g>
<!-- FormsModule -->
<g id="node4" class="node">
<title>FormsModule</title>
<polygon fill="#8dd3c7" stroke="#000000" points="1881.8288,-122 1878.8288,-126 1857.8288,-126 1854.8288,-122 1786.1712,-122 1786.1712,-86 1881.8288,-86 1881.8288,-122"/>
<text text-anchor="middle" x="1834" y="-99.8" font-family="Times,serif" font-size="14.00" fill="#000000">FormsModule</text>
</g>
<!-- FormsModule&#45;&gt;AppModule -->
<g id="edge3" class="edge">
<title>FormsModule&#45;&gt;AppModule</title>
<path fill="none" stroke="#000000" d="M1834,-122.0267C1834,-142.7672 1834,-174 1834,-174 1834,-174 1129.7227,-174 1129.7227,-174"/>
<polygon fill="#000000" stroke="#000000" points="1129.7227,-170.5001 1119.7227,-174 1129.7227,-177.5001 1129.7227,-170.5001"/>
</g>
<!-- ReactiveFormsModule -->
<g id="node5" class="node">
<title>ReactiveFormsModule</title>
<polygon fill="#8dd3c7" stroke="#000000" points="1768.3047,-122 1765.3047,-126 1744.3047,-126 1741.3047,-122 1623.6953,-122 1623.6953,-86 1768.3047,-86 1768.3047,-122"/>
<text text-anchor="middle" x="1696" y="-99.8" font-family="Times,serif" font-size="14.00" fill="#000000">ReactiveFormsModule</text>
</g>
<!-- ReactiveFormsModule&#45;&gt;AppModule -->
<g id="edge4" class="edge">
<title>ReactiveFormsModule&#45;&gt;AppModule</title>
<path fill="none" stroke="#000000" d="M1696,-122.1061C1696,-141.3391 1696,-169 1696,-169 1696,-169 1129.9918,-169 1129.9918,-169"/>
<polygon fill="#000000" stroke="#000000" points="1129.9918,-165.5001 1119.9918,-169 1129.9918,-172.5001 1129.9918,-165.5001"/>
</g>
<!-- NoopAnimationsModule -->
<g id="node6" class="node">
<title>NoopAnimationsModule</title>
<polygon fill="#8dd3c7" stroke="#000000" points="1605.9846,-122 1602.9846,-126 1581.9846,-126 1578.9846,-122 1450.0154,-122 1450.0154,-86 1605.9846,-86 1605.9846,-122"/>
<text text-anchor="middle" x="1528" y="-99.8" font-family="Times,serif" font-size="14.00" fill="#000000">NoopAnimationsModule</text>
</g>
<!-- NoopAnimationsModule&#45;&gt;AppModule -->
<g id="edge5" class="edge">
<title>NoopAnimationsModule&#45;&gt;AppModule</title>
<path fill="none" stroke="#000000" d="M1528,-122.302C1528,-140.2699 1528,-165 1528,-165 1528,-165 1129.9308,-165 1129.9308,-165"/>
<polygon fill="#000000" stroke="#000000" points="1129.9308,-161.5001 1119.9308,-165 1129.9308,-168.5001 1129.9308,-161.5001"/>
</g>
<!-- MatButtonModule -->
<g id="node7" class="node">
<title>MatButtonModule</title>
<polygon fill="#8dd3c7" stroke="#000000" points="1432.2176,-122 1429.2176,-126 1408.2176,-126 1405.2176,-122 1311.7824,-122 1311.7824,-86 1432.2176,-86 1432.2176,-122"/>
<text text-anchor="middle" x="1372" y="-99.8" font-family="Times,serif" font-size="14.00" fill="#000000">MatButtonModule</text>
</g>
<!-- MatButtonModule&#45;&gt;AppModule -->
<g id="edge6" class="edge">
<title>MatButtonModule&#45;&gt;AppModule</title>
<path fill="none" stroke="#000000" d="M1372,-122.027C1372,-138.3976 1372,-160 1372,-160 1372,-160 1129.8108,-160 1129.8108,-160"/>
<polygon fill="#000000" stroke="#000000" points="1129.8108,-156.5001 1119.8108,-160 1129.8108,-163.5001 1129.8108,-156.5001"/>
</g>
<!-- MatCheckboxModule -->
<g id="node8" class="node">
<title>MatCheckboxModule</title>
<polygon fill="#8dd3c7" stroke="#000000" points="1293.3655,-122 1290.3655,-126 1269.3655,-126 1266.3655,-122 1154.6345,-122 1154.6345,-86 1293.3655,-86 1293.3655,-122"/>
<text text-anchor="middle" x="1224" y="-99.8" font-family="Times,serif" font-size="14.00" fill="#000000">MatCheckboxModule</text>
</g>
<!-- MatCheckboxModule&#45;&gt;AppModule -->
<g id="edge7" class="edge">
<title>MatCheckboxModule&#45;&gt;AppModule</title>
<path fill="none" stroke="#000000" d="M1224,-122.1871C1224,-137.1824 1224,-156 1224,-156 1224,-156 1129.8377,-156 1129.8377,-156"/>
<polygon fill="#000000" stroke="#000000" points="1129.8378,-152.5001 1119.8377,-156 1129.8377,-159.5001 1129.8378,-152.5001"/>
</g>
<!-- MatSelectModule -->
<g id="node9" class="node">
<title>MatSelectModule</title>
<polygon fill="#8dd3c7" stroke="#000000" points="1136.3076,-122 1133.3076,-126 1112.3076,-126 1109.3076,-122 1019.6924,-122 1019.6924,-86 1136.3076,-86 1136.3076,-122"/>
<text text-anchor="middle" x="1078" y="-99.8" font-family="Times,serif" font-size="14.00" fill="#000000">MatSelectModule</text>
</g>
<!-- MatSelectModule&#45;&gt;AppModule -->
<g id="edge8" class="edge">
<title>MatSelectModule&#45;&gt;AppModule</title>
<path fill="none" stroke="#000000" d="M1078,-122.1061C1078,-122.1061 1078,-140.991 1078,-140.991"/>
<polygon fill="#000000" stroke="#000000" points="1074.5001,-140.9909 1078,-150.991 1081.5001,-140.991 1074.5001,-140.9909"/>
</g>
<!-- MatInputModule -->
<g id="node10" class="node">
<title>MatInputModule</title>
<polygon fill="#8dd3c7" stroke="#000000" points="1001.6513,-122 998.6513,-126 977.6513,-126 974.6513,-122 890.3487,-122 890.3487,-86 1001.6513,-86 1001.6513,-122"/>
<text text-anchor="middle" x="946" y="-99.8" font-family="Times,serif" font-size="14.00" fill="#000000">MatInputModule</text>
</g>
<!-- MatInputModule&#45;&gt;AppModule -->
<g id="edge9" class="edge">
<title>MatInputModule&#45;&gt;AppModule</title>
<path fill="none" stroke="#000000" d="M946,-122.1871C946,-137.1824 946,-156 946,-156 946,-156 1026.2344,-156 1026.2344,-156"/>
<polygon fill="#000000" stroke="#000000" points="1026.2344,-159.5001 1036.2344,-156 1026.2343,-152.5001 1026.2344,-159.5001"/>
</g>
<!-- MatDatepickerModule -->
<g id="node11" class="node">
<title>MatDatepickerModule</title>
<polygon fill="#8dd3c7" stroke="#000000" points="871.5072,-122 868.5072,-126 847.5072,-126 844.5072,-122 728.4928,-122 728.4928,-86 871.5072,-86 871.5072,-122"/>
<text text-anchor="middle" x="800" y="-99.8" font-family="Times,serif" font-size="14.00" fill="#000000">MatDatepickerModule</text>
</g>
<!-- MatDatepickerModule&#45;&gt;AppModule -->
<g id="edge10" class="edge">
<title>MatDatepickerModule&#45;&gt;AppModule</title>
<path fill="none" stroke="#000000" d="M800,-122.027C800,-138.3976 800,-160 800,-160 800,-160 1026.0796,-160 1026.0796,-160"/>
<polygon fill="#000000" stroke="#000000" points="1026.0796,-163.5001 1036.0796,-160 1026.0796,-156.5001 1026.0796,-163.5001"/>
</g>
<!-- MatNativeDateModule -->
<g id="node12" class="node">
<title>MatNativeDateModule</title>
<polygon fill="#8dd3c7" stroke="#000000" points="709.8431,-122 706.8431,-126 685.8431,-126 682.8431,-122 564.1569,-122 564.1569,-86 709.8431,-86 709.8431,-122"/>
<text text-anchor="middle" x="637" y="-99.8" font-family="Times,serif" font-size="14.00" fill="#000000">MatNativeDateModule</text>
</g>
<!-- MatNativeDateModule&#45;&gt;AppModule -->
<g id="edge11" class="edge">
<title>MatNativeDateModule&#45;&gt;AppModule</title>
<path fill="none" stroke="#000000" d="M637,-122.302C637,-140.2699 637,-165 637,-165 637,-165 1026.1142,-165 1026.1142,-165"/>
<polygon fill="#000000" stroke="#000000" points="1026.1142,-168.5001 1036.1142,-165 1026.1142,-161.5001 1026.1142,-168.5001"/>
</g>
<!-- MatRadioModule -->
<g id="node13" class="node">
<title>MatRadioModule</title>
<polygon fill="#8dd3c7" stroke="#000000" points="545.5423,-122 542.5423,-126 521.5423,-126 518.5423,-122 430.4577,-122 430.4577,-86 545.5423,-86 545.5423,-122"/>
<text text-anchor="middle" x="488" y="-99.8" font-family="Times,serif" font-size="14.00" fill="#000000">MatRadioModule</text>
</g>
<!-- MatRadioModule&#45;&gt;AppModule -->
<g id="edge12" class="edge">
<title>MatRadioModule&#45;&gt;AppModule</title>
<path fill="none" stroke="#000000" d="M488,-122.1061C488,-141.3391 488,-169 488,-169 488,-169 1026.0416,-169 1026.0416,-169"/>
<polygon fill="#000000" stroke="#000000" points="1026.0417,-172.5001 1036.0416,-169 1026.0416,-165.5001 1026.0417,-172.5001"/>
</g>
<!-- MatIconModule -->
<g id="node14" class="node">
<title>MatIconModule</title>
<polygon fill="#8dd3c7" stroke="#000000" points="412.4748,-122 409.4748,-126 388.4748,-126 385.4748,-122 305.5252,-122 305.5252,-86 412.4748,-86 412.4748,-122"/>
<text text-anchor="middle" x="359" y="-99.8" font-family="Times,serif" font-size="14.00" fill="#000000">MatIconModule</text>
</g>
<!-- MatIconModule&#45;&gt;AppModule -->
<g id="edge13" class="edge">
<title>MatIconModule&#45;&gt;AppModule</title>
<path fill="none" stroke="#000000" d="M359,-122.0267C359,-142.7672 359,-174 359,-174 359,-174 1026.2357,-174 1026.2357,-174"/>
<polygon fill="#000000" stroke="#000000" points="1026.2358,-177.5001 1036.2357,-174 1026.2357,-170.5001 1026.2358,-177.5001"/>
</g>
<!-- MatCardModule -->
<g id="node15" class="node">
<title>MatCardModule</title>
<polygon fill="#8dd3c7" stroke="#000000" points="287.8118,-122 284.8118,-126 263.8118,-126 260.8118,-122 178.1882,-122 178.1882,-86 287.8118,-86 287.8118,-122"/>
<text text-anchor="middle" x="233" y="-99.8" font-family="Times,serif" font-size="14.00" fill="#000000">MatCardModule</text>
</g>
<!-- MatCardModule&#45;&gt;AppModule -->
<g id="edge14" class="edge">
<title>MatCardModule&#45;&gt;AppModule</title>
<path fill="none" stroke="#000000" d="M233,-122.2921C233,-144.2057 233,-178 233,-178 233,-178 1026.0963,-178 1026.0963,-178"/>
<polygon fill="#000000" stroke="#000000" points="1026.0964,-181.5001 1036.0963,-178 1026.0963,-174.5001 1026.0964,-181.5001"/>
</g>
<!-- QueryBuilderModule -->
<g id="node16" class="node">
<title>QueryBuilderModule</title>
<polygon fill="#8dd3c7" stroke="#000000" points="160.0254,-122 157.0254,-126 136.0254,-126 133.0254,-122 23.9746,-122 23.9746,-86 160.0254,-86 160.0254,-122"/>
<text text-anchor="middle" x="92" y="-99.8" font-family="Times,serif" font-size="14.00" fill="#000000">QueryBuilderModule</text>
</g>
<!-- QueryBuilderModule&#45;&gt;AppModule -->
<g id="edge15" class="edge">
<title>QueryBuilderModule&#45;&gt;AppModule</title>
<path fill="none" stroke="#000000" d="M92,-122.3228C92,-145.6602 92,-183 92,-183 92,-183 1026.2626,-183 1026.2626,-183"/>
<polygon fill="#000000" stroke="#000000" points="1026.2626,-186.5001 1036.2626,-183 1026.2626,-179.5001 1026.2626,-186.5001"/>
</g>
</g>
</svg>
