<?xml version="1.0" encoding="UTF-8" standalone="no"?>
<!DOCTYPE svg PUBLIC "-//W3C//DTD SVG 1.1//EN"
 "http://www.w3.org/Graphics/SVG/1.1/DTD/svg11.dtd">
<!-- Generated by graphviz version 2.40.1 (20161225.0304)
 -->
<!-- Title: dependencies Pages: 1 -->
<svg width="1466pt" height="284pt"
 viewBox="0.00 0.00 1466.00 284.00" xmlns="http://www.w3.org/2000/svg" xmlns:xlink="http://www.w3.org/1999/xlink">
<g id="graph0" class="graph" transform="scale(1 1) rotate(0) translate(4 280)">
<title>dependencies</title>
<polygon fill="#ffffff" stroke="transparent" points="-4,4 -4,-280 1462,-280 1462,4 -4,4"/>
<text text-anchor="start" x="708.0091" y="-42.4" font-family="sans-serif" font-weight="bold" font-size="14.00" fill="#000000">Legend</text>
<polygon fill="#ffffb3" stroke="transparent" points="495,-10 495,-30 515,-30 515,-10 495,-10"/>
<text text-anchor="start" x="518.629" y="-15.4" font-family="sans-serif" font-size="14.00" fill="#000000"> &#160;Declarations</text>
<polygon fill="#8dd3c7" stroke="transparent" points="608,-10 608,-30 628,-30 628,-10 608,-10"/>
<text text-anchor="start" x="631.7251" y="-15.4" font-family="sans-serif" font-size="14.00" fill="#000000"> &#160;Module</text>
<polygon fill="#80b1d3" stroke="transparent" points="694,-10 694,-30 714,-30 714,-10 694,-10"/>
<text text-anchor="start" x="717.7812" y="-15.4" font-family="sans-serif" font-size="14.00" fill="#000000"> &#160;Bootstrap</text>
<polygon fill="#fdb462" stroke="transparent" points="791,-10 791,-30 811,-30 811,-10 791,-10"/>
<text text-anchor="start" x="814.6732" y="-15.4" font-family="sans-serif" font-size="14.00" fill="#000000"> &#160;Providers</text>
<polygon fill="#fb8072" stroke="transparent" points="887,-10 887,-30 907,-30 907,-10 887,-10"/>
<text text-anchor="start" x="910.7258" y="-15.4" font-family="sans-serif" font-size="14.00" fill="#000000"> &#160;Exports</text>
<g id="clust1" class="cluster">
<title>cluster_QueryBuilderModule</title>
<polygon fill="none" stroke="#000000" stroke-dasharray="1,5" points="8,-70 8,-268 1450,-268 1450,-70 8,-70"/>
</g>
<g id="clust2" class="cluster">
<title>cluster_QueryBuilderModule_declarations</title>
<polygon fill="none" stroke="#000000" points="33,-78 33,-130 1431,-130 1431,-78 33,-78"/>
</g>
<g id="clust12" class="cluster">
<title>cluster_QueryBuilderModule_exports</title>
<polygon fill="none" stroke="#000000" points="16,-208 16,-260 1442,-260 1442,-208 16,-208"/>
</g>
<!-- QueryBuilderComponent -->
<g id="node1" class="node">
<title>QueryBuilderComponent</title>
<polygon fill="#ffffb3" stroke="#000000" points="1423.3075,-122 1264.6925,-122 1264.6925,-86 1423.3075,-86 1423.3075,-122"/>
<text text-anchor="middle" x="1344" y="-99.8" font-family="Times,serif" font-size="14.00" fill="#000000">QueryBuilderComponent</text>
</g>
<!-- QueryBuilderModule -->
<g id="node9" class="node">
<title>QueryBuilderModule</title>
<polygon fill="#8dd3c7" stroke="#000000" points="754.0254,-187 751.0254,-191 730.0254,-191 727.0254,-187 617.9746,-187 617.9746,-151 754.0254,-151 754.0254,-187"/>
<text text-anchor="middle" x="686" y="-164.8" font-family="Times,serif" font-size="14.00" fill="#000000">QueryBuilderModule</text>
</g>
<!-- QueryBuilderComponent&#45;&gt;QueryBuilderModule -->
<g id="edge1" class="edge">
<title>QueryBuilderComponent&#45;&gt;QueryBuilderModule</title>
<path fill="none" stroke="#000000" d="M1268.4714,-122.2222C1268.4714,-140.8285 1268.4714,-167 1268.4714,-167 1268.4714,-167 764.243,-167 764.243,-167"/>
<polygon fill="#000000" stroke="#000000" points="764.2431,-163.5001 754.243,-167 764.243,-170.5001 764.2431,-163.5001"/>
</g>
<!-- QueryButtonGroupDirective -->
<g id="node2" class="node">
<title>QueryButtonGroupDirective</title>
<polygon fill="#ffffb3" stroke="#000000" points="1246.4496,-122 1069.5504,-122 1069.5504,-86 1246.4496,-86 1246.4496,-122"/>
<text text-anchor="middle" x="1158" y="-99.8" font-family="Times,serif" font-size="14.00" fill="#000000">QueryButtonGroupDirective</text>
</g>
<!-- QueryButtonGroupDirective&#45;&gt;QueryBuilderModule -->
<g id="edge2" class="edge">
<title>QueryButtonGroupDirective&#45;&gt;QueryBuilderModule</title>
<path fill="none" stroke="#000000" d="M1188.9083,-122.0336C1188.9083,-139.0597 1188.9083,-162 1188.9083,-162 1188.9083,-162 764.0859,-162 764.0859,-162"/>
<polygon fill="#000000" stroke="#000000" points="764.086,-158.5001 754.0859,-162 764.0859,-165.5001 764.086,-158.5001"/>
</g>
<!-- QueryEntityDirective -->
<g id="node3" class="node">
<title>QueryEntityDirective</title>
<polygon fill="#ffffb3" stroke="#000000" points="1051.7893,-122 914.2107,-122 914.2107,-86 1051.7893,-86 1051.7893,-122"/>
<text text-anchor="middle" x="983" y="-99.8" font-family="Times,serif" font-size="14.00" fill="#000000">QueryEntityDirective</text>
</g>
<!-- QueryEntityDirective&#45;&gt;QueryBuilderModule -->
<g id="edge3" class="edge">
<title>QueryEntityDirective&#45;&gt;QueryBuilderModule</title>
<path fill="none" stroke="#000000" d="M1005.9648,-122.2396C1005.9648,-137.5706 1005.9648,-157 1005.9648,-157 1005.9648,-157 764.248,-157 764.248,-157"/>
<polygon fill="#000000" stroke="#000000" points="764.2481,-153.5001 754.248,-157 764.248,-160.5001 764.2481,-153.5001"/>
</g>
<!-- QueryFieldDirective -->
<g id="node4" class="node">
<title>QueryFieldDirective</title>
<polygon fill="#ffffb3" stroke="#000000" points="895.8431,-122 764.1569,-122 764.1569,-86 895.8431,-86 895.8431,-122"/>
<text text-anchor="middle" x="830" y="-99.8" font-family="Times,serif" font-size="14.00" fill="#000000">QueryFieldDirective</text>
</g>
<!-- QueryFieldDirective&#45;&gt;QueryBuilderModule -->
<g id="edge4" class="edge">
<title>QueryFieldDirective&#45;&gt;QueryBuilderModule</title>
<path fill="none" stroke="#000000" d="M763.8076,-104C755.7453,-104 750.2851,-104 750.2851,-104 750.2851,-104 750.2851,-140.8939 750.2851,-140.8939"/>
<polygon fill="#000000" stroke="#000000" points="746.7852,-140.8938 750.2851,-150.8939 753.7852,-140.8939 746.7852,-140.8938"/>
</g>
<!-- QueryInputDirective -->
<g id="node5" class="node">
<title>QueryInputDirective</title>
<polygon fill="#ffffb3" stroke="#000000" points="746.1164,-122 613.8836,-122 613.8836,-86 746.1164,-86 746.1164,-122"/>
<text text-anchor="middle" x="680" y="-99.8" font-family="Times,serif" font-size="14.00" fill="#000000">QueryInputDirective</text>
</g>
<!-- QueryInputDirective&#45;&gt;QueryBuilderModule -->
<g id="edge5" class="edge">
<title>QueryInputDirective&#45;&gt;QueryBuilderModule</title>
<path fill="none" stroke="#000000" d="M682.0228,-122.1061C682.0228,-122.1061 682.0228,-140.991 682.0228,-140.991"/>
<polygon fill="#000000" stroke="#000000" points="678.5229,-140.9909 682.0228,-150.991 685.5229,-140.991 678.5229,-140.9909"/>
</g>
<!-- QueryOperatorDirective -->
<g id="node6" class="node">
<title>QueryOperatorDirective</title>
<polygon fill="#ffffb3" stroke="#000000" points="595.3123,-122 442.6877,-122 442.6877,-86 595.3123,-86 595.3123,-122"/>
<text text-anchor="middle" x="519" y="-99.8" font-family="Times,serif" font-size="14.00" fill="#000000">QueryOperatorDirective</text>
</g>
<!-- QueryOperatorDirective&#45;&gt;QueryBuilderModule -->
<g id="edge6" class="edge">
<title>QueryOperatorDirective&#45;&gt;QueryBuilderModule</title>
<path fill="none" stroke="#000000" d="M540.302,-122.2396C540.302,-137.5706 540.302,-157 540.302,-157 540.302,-157 607.8435,-157 607.8435,-157"/>
<polygon fill="#000000" stroke="#000000" points="607.8435,-160.5001 617.8435,-157 607.8434,-153.5001 607.8435,-160.5001"/>
</g>
<!-- QueryRemoveButtonDirective -->
<g id="node7" class="node">
<title>QueryRemoveButtonDirective</title>
<polygon fill="#ffffb3" stroke="#000000" points="424.8389,-122 237.1611,-122 237.1611,-86 424.8389,-86 424.8389,-122"/>
<text text-anchor="middle" x="331" y="-99.8" font-family="Times,serif" font-size="14.00" fill="#000000">QueryRemoveButtonDirective</text>
</g>
<!-- QueryRemoveButtonDirective&#45;&gt;QueryBuilderModule -->
<g id="edge7" class="edge">
<title>QueryRemoveButtonDirective&#45;&gt;QueryBuilderModule</title>
<path fill="none" stroke="#000000" d="M419.7944,-122.0336C419.7944,-139.0597 419.7944,-162 419.7944,-162 419.7944,-162 607.7911,-162 607.7911,-162"/>
<polygon fill="#000000" stroke="#000000" points="607.7912,-165.5001 617.7911,-162 607.7911,-158.5001 607.7912,-165.5001"/>
</g>
<!-- QuerySwitchGroupDirective -->
<g id="node8" class="node">
<title>QuerySwitchGroupDirective</title>
<polygon fill="#ffffb3" stroke="#000000" points="218.717,-122 41.283,-122 41.283,-86 218.717,-86 218.717,-122"/>
<text text-anchor="middle" x="130" y="-99.8" font-family="Times,serif" font-size="14.00" fill="#000000">QuerySwitchGroupDirective</text>
</g>
<!-- QuerySwitchGroupDirective&#45;&gt;QueryBuilderModule -->
<g id="edge8" class="edge">
<title>QuerySwitchGroupDirective&#45;&gt;QueryBuilderModule</title>
<path fill="none" stroke="#000000" d="M212.2334,-122.2222C212.2334,-140.8285 212.2334,-167 212.2334,-167 212.2334,-167 607.8687,-167 607.8687,-167"/>
<polygon fill="#000000" stroke="#000000" points="607.8687,-170.5001 617.8687,-167 607.8687,-163.5001 607.8687,-170.5001"/>
</g>
<!-- QueryBuilderComponent  -->
<g id="node10" class="node">
<title>QueryBuilderComponent </title>
<polygon fill="#fb8072" stroke="#000000" points="1433.8073,-252 1272.1927,-252 1272.1927,-216 1433.8073,-216 1433.8073,-252"/>
<text text-anchor="middle" x="1353" y="-229.8" font-family="Times,serif" font-size="14.00" fill="#000000">QueryBuilderComponent </text>
</g>
<!-- QueryBuilderModule&#45;&gt;QueryBuilderComponent  -->
<g id="edge9" class="edge">
<title>QueryBuilderModule&#45;&gt;QueryBuilderComponent </title>
<path fill="none" stroke="#000000" stroke-dasharray="5,2" d="M754.3135,-172C923.3576,-172 1347.625,-172 1347.625,-172 1347.625,-172 1347.625,-205.7333 1347.625,-205.7333"/>
<polygon fill="#000000" stroke="#000000" points="1344.1251,-205.7333 1347.625,-215.7333 1351.1251,-205.7333 1344.1251,-205.7333"/>
</g>
<!-- QueryButtonGroupDirective  -->
<g id="node11" class="node">
<title>QueryButtonGroupDirective </title>
<polygon fill="#fb8072" stroke="#000000" points="1254.4502,-252 1073.5498,-252 1073.5498,-216 1254.4502,-216 1254.4502,-252"/>
<text text-anchor="middle" x="1164" y="-229.8" font-family="Times,serif" font-size="14.00" fill="#000000">QueryButtonGroupDirective </text>
</g>
<!-- QueryBuilderModule&#45;&gt;QueryButtonGroupDirective  -->
<g id="edge10" class="edge">
<title>QueryBuilderModule&#45;&gt;QueryButtonGroupDirective </title>
<path fill="none" stroke="#000000" stroke-dasharray="5,2" d="M754.1226,-177C878.8761,-177 1131.3417,-177 1131.3417,-177 1131.3417,-177 1131.3417,-205.9648 1131.3417,-205.9648"/>
<polygon fill="#000000" stroke="#000000" points="1127.8418,-205.9648 1131.3417,-215.9648 1134.8418,-205.9649 1127.8418,-205.9648"/>
</g>
<!-- QueryEntityDirective  -->
<g id="node12" class="node">
<title>QueryEntityDirective </title>
<polygon fill="#fb8072" stroke="#000000" points="1055.2892,-252 914.7108,-252 914.7108,-216 1055.2892,-216 1055.2892,-252"/>
<text text-anchor="middle" x="985" y="-229.8" font-family="Times,serif" font-size="14.00" fill="#000000">QueryEntityDirective </text>
</g>
<!-- QueryBuilderModule&#45;&gt;QueryEntityDirective  -->
<g id="edge11" class="edge">
<title>QueryBuilderModule&#45;&gt;QueryEntityDirective </title>
<path fill="none" stroke="#000000" stroke-dasharray="5,2" d="M754.1532,-182C835.3863,-182 960.2852,-182 960.2852,-182 960.2852,-182 960.2852,-205.8129 960.2852,-205.8129"/>
<polygon fill="#000000" stroke="#000000" points="956.7853,-205.8129 960.2852,-215.8129 963.7853,-205.813 956.7853,-205.8129"/>
</g>
<!-- QueryFieldDirective  -->
<g id="node13" class="node">
<title>QueryFieldDirective </title>
<polygon fill="#fb8072" stroke="#000000" points="896.8434,-252 761.1566,-252 761.1566,-216 896.8434,-216 896.8434,-252"/>
<text text-anchor="middle" x="829" y="-229.8" font-family="Times,serif" font-size="14.00" fill="#000000">QueryFieldDirective </text>
</g>
<!-- QueryBuilderModule&#45;&gt;QueryFieldDirective  -->
<g id="edge12" class="edge">
<title>QueryBuilderModule&#45;&gt;QueryFieldDirective </title>
<path fill="none" stroke="#000000" stroke-dasharray="5,2" d="M748.6601,-187.1061C748.6601,-206.3391 748.6601,-234 748.6601,-234 748.6601,-234 751.2132,-234 751.2132,-234"/>
<polygon fill="#000000" stroke="#000000" points="751.2132,-237.5001 761.2132,-234 751.2132,-230.5001 751.2132,-237.5001"/>
</g>
<!-- QueryInputDirective  -->
<g id="node14" class="node">
<title>QueryInputDirective </title>
<polygon fill="#fb8072" stroke="#000000" points="743.1158,-252 606.8842,-252 606.8842,-216 743.1158,-216 743.1158,-252"/>
<text text-anchor="middle" x="675" y="-229.8" font-family="Times,serif" font-size="14.00" fill="#000000">QueryInputDirective </text>
</g>
<!-- QueryBuilderModule&#45;&gt;QueryInputDirective  -->
<g id="edge13" class="edge">
<title>QueryBuilderModule&#45;&gt;QueryInputDirective </title>
<path fill="none" stroke="#000000" stroke-dasharray="5,2" d="M680.3978,-187.1061C680.3978,-187.1061 680.3978,-205.991 680.3978,-205.991"/>
<polygon fill="#000000" stroke="#000000" points="676.8979,-205.9909 680.3978,-215.991 683.8979,-205.991 676.8979,-205.9909"/>
</g>
<!-- QueryOperatorDirective  -->
<g id="node15" class="node">
<title>QueryOperatorDirective </title>
<polygon fill="#fb8072" stroke="#000000" points="589.3125,-252 432.6875,-252 432.6875,-216 589.3125,-216 589.3125,-252"/>
<text text-anchor="middle" x="511" y="-229.8" font-family="Times,serif" font-size="14.00" fill="#000000">QueryOperatorDirective </text>
</g>
<!-- QueryBuilderModule&#45;&gt;QueryOperatorDirective  -->
<g id="edge14" class="edge">
<title>QueryBuilderModule&#45;&gt;QueryOperatorDirective </title>
<path fill="none" stroke="#000000" stroke-dasharray="5,2" d="M617.9551,-182C561.852,-182 491.448,-182 491.448,-182 491.448,-182 491.448,-205.8129 491.448,-205.8129"/>
<polygon fill="#000000" stroke="#000000" points="487.9481,-205.8129 491.448,-215.8129 494.9481,-205.813 487.9481,-205.8129"/>
</g>
<!-- QueryRemoveButtonDirective  -->
<g id="node16" class="node">
<title>QueryRemoveButtonDirective </title>
<polygon fill="#fb8072" stroke="#000000" points="414.8391,-252 223.1609,-252 223.1609,-216 414.8391,-216 414.8391,-252"/>
<text text-anchor="middle" x="319" y="-229.8" font-family="Times,serif" font-size="14.00" fill="#000000">QueryRemoveButtonDirective </text>
</g>
<!-- QueryBuilderModule&#45;&gt;QueryRemoveButtonDirective  -->
<g id="edge15" class="edge">
<title>QueryBuilderModule&#45;&gt;QueryRemoveButtonDirective </title>
<path fill="none" stroke="#000000" stroke-dasharray="5,2" d="M617.8399,-177C513.4359,-177 325.875,-177 325.875,-177 325.875,-177 325.875,-205.9648 325.875,-205.9648"/>
<polygon fill="#000000" stroke="#000000" points="322.3751,-205.9648 325.875,-215.9648 329.3751,-205.9649 322.3751,-205.9648"/>
</g>
<!-- QuerySwitchGroupDirective  -->
<g id="node17" class="node">
<title>QuerySwitchGroupDirective </title>
<polygon fill="#fb8072" stroke="#000000" points="205.7169,-252 24.2831,-252 24.2831,-216 205.7169,-216 205.7169,-252"/>
<text text-anchor="middle" x="115" y="-229.8" font-family="Times,serif" font-size="14.00" fill="#000000">QuerySwitchGroupDirective </text>
</g>
<!-- QueryBuilderModule&#45;&gt;QuerySwitchGroupDirective  -->
<g id="edge16" class="edge">
<title>QueryBuilderModule&#45;&gt;QuerySwitchGroupDirective </title>
<path fill="none" stroke="#000000" stroke-dasharray="5,2" d="M617.8542,-172C468.063,-172 123.375,-172 123.375,-172 123.375,-172 123.375,-205.7333 123.375,-205.7333"/>
<polygon fill="#000000" stroke="#000000" points="119.8751,-205.7333 123.375,-215.7333 126.8751,-205.7333 119.8751,-205.7333"/>
</g>
</g>
</svg>
