<?xml version="1.0" encoding="UTF-8" standalone="no"?>
<!DOCTYPE svg PUBLIC "-//W3C//DTD SVG 1.1//EN"
 "http://www.w3.org/Graphics/SVG/1.1/DTD/svg11.dtd">
<!-- Generated by graphviz version 2.40.1 (20161225.0304)
 -->
<!-- Title: dependencies Pages: 1 -->
<svg width="613pt" height="284pt"
 viewBox="0.00 0.00 613.00 284.00" xmlns="http://www.w3.org/2000/svg" xmlns:xlink="http://www.w3.org/1999/xlink">
<g id="graph0" class="graph" transform="scale(1 1) rotate(0) translate(4 280)">
<title>dependencies</title>
<polygon fill="#ffffff" stroke="transparent" points="-4,4 -4,-280 609,-280 609,4 -4,4"/>
<text text-anchor="start" x="281.5091" y="-42.4" font-family="sans-serif" font-weight="bold" font-size="14.00" fill="#000000">Legend</text>
<polygon fill="#ffffb3" stroke="transparent" points="68.5,-10 68.5,-30 88.5,-30 88.5,-10 68.5,-10"/>
<text text-anchor="start" x="92.129" y="-15.4" font-family="sans-serif" font-size="14.00" fill="#000000"> &#160;Declarations</text>
<polygon fill="#8dd3c7" stroke="transparent" points="181.5,-10 181.5,-30 201.5,-30 201.5,-10 181.5,-10"/>
<text text-anchor="start" x="205.2251" y="-15.4" font-family="sans-serif" font-size="14.00" fill="#000000"> &#160;Module</text>
<polygon fill="#80b1d3" stroke="transparent" points="267.5,-10 267.5,-30 287.5,-30 287.5,-10 267.5,-10"/>
<text text-anchor="start" x="291.2812" y="-15.4" font-family="sans-serif" font-size="14.00" fill="#000000"> &#160;Bootstrap</text>
<polygon fill="#fdb462" stroke="transparent" points="364.5,-10 364.5,-30 384.5,-30 384.5,-10 364.5,-10"/>
<text text-anchor="start" x="388.1732" y="-15.4" font-family="sans-serif" font-size="14.00" fill="#000000"> &#160;Providers</text>
<polygon fill="#fb8072" stroke="transparent" points="460.5,-10 460.5,-30 480.5,-30 480.5,-10 460.5,-10"/>
<text text-anchor="start" x="484.2258" y="-15.4" font-family="sans-serif" font-size="14.00" fill="#000000"> &#160;Exports</text>
<g id="clust1" class="cluster">
<title>cluster_QueryBuilderModule</title>
<polygon fill="none" stroke="#000000" stroke-dasharray="1,5" points="8,-70 8,-268 597,-268 597,-70 8,-70"/>
</g>
<g id="clust2" class="cluster">
<title>cluster_QueryBuilderModule_declarations</title>
<polygon fill="none" stroke="#000000" points="265,-78 265,-130 589,-130 589,-78 265,-78"/>
</g>
<g id="clust5" class="cluster">
<title>cluster_QueryBuilderModule_imports</title>
<polygon fill="none" stroke="#000000" points="16,-78 16,-130 257,-130 257,-78 16,-78"/>
</g>
<g id="clust6" class="cluster">
<title>cluster_QueryBuilderModule_exports</title>
<polygon fill="none" stroke="#000000" points="104,-208 104,-260 436,-260 436,-208 104,-208"/>
</g>
<!-- QueryBuilderComponent -->
<g id="node1" class="node">
<title>QueryBuilderComponent</title>
<polygon fill="#ffffb3" stroke="#000000" points="581.3075,-122 422.6925,-122 422.6925,-86 581.3075,-86 581.3075,-122"/>
<text text-anchor="middle" x="502" y="-99.8" font-family="Times,serif" font-size="14.00" fill="#000000">QueryBuilderComponent</text>
</g>
<!-- QueryBuilderModule -->
<g id="node3" class="node">
<title>QueryBuilderModule</title>
<polygon fill="#8dd3c7" stroke="#000000" points="331.0254,-187 328.0254,-191 307.0254,-191 304.0254,-187 194.9746,-187 194.9746,-151 331.0254,-151 331.0254,-187"/>
<text text-anchor="middle" x="263" y="-164.8" font-family="Times,serif" font-size="14.00" fill="#000000">QueryBuilderModule</text>
</g>
<!-- QueryBuilderComponent&#45;&gt;QueryBuilderModule -->
<g id="edge1" class="edge">
<title>QueryBuilderComponent&#45;&gt;QueryBuilderModule</title>
<path fill="none" stroke="#000000" d="M504.5286,-122.1061C504.5286,-141.3391 504.5286,-169 504.5286,-169 504.5286,-169 341.2439,-169 341.2439,-169"/>
<polygon fill="#000000" stroke="#000000" points="341.244,-165.5001 331.2439,-169 341.2439,-172.5001 341.244,-165.5001"/>
</g>
<!-- QueryInputDirective -->
<g id="node2" class="node">
<title>QueryInputDirective</title>
<polygon fill="#ffffb3" stroke="#000000" points="405.1164,-122 272.8836,-122 272.8836,-86 405.1164,-86 405.1164,-122"/>
<text text-anchor="middle" x="339" y="-99.8" font-family="Times,serif" font-size="14.00" fill="#000000">QueryInputDirective</text>
</g>
<!-- QueryInputDirective&#45;&gt;QueryBuilderModule -->
<g id="edge2" class="edge">
<title>QueryInputDirective&#45;&gt;QueryBuilderModule</title>
<path fill="none" stroke="#000000" d="M301.9772,-122.1061C301.9772,-122.1061 301.9772,-140.991 301.9772,-140.991"/>
<polygon fill="#000000" stroke="#000000" points="298.4773,-140.9909 301.9772,-150.991 305.4773,-140.991 298.4773,-140.9909"/>
</g>
<!-- QueryBuilderComponent  -->
<g id="node6" class="node">
<title>QueryBuilderComponent </title>
<polygon fill="#fb8072" stroke="#000000" points="427.8073,-252 266.1927,-252 266.1927,-216 427.8073,-216 427.8073,-252"/>
<text text-anchor="middle" x="347" y="-229.8" font-family="Times,serif" font-size="14.00" fill="#000000">QueryBuilderComponent </text>
</g>
<!-- QueryBuilderModule&#45;&gt;QueryBuilderComponent  -->
<g id="edge5" class="edge">
<title>QueryBuilderModule&#45;&gt;QueryBuilderComponent </title>
<path fill="none" stroke="#000000" stroke-dasharray="5,2" d="M298.6794,-187.1061C298.6794,-187.1061 298.6794,-205.991 298.6794,-205.991"/>
<polygon fill="#000000" stroke="#000000" points="295.1794,-205.9909 298.6794,-215.991 302.1794,-205.991 295.1794,-205.9909"/>
</g>
<!-- QueryInputDirective  -->
<g id="node7" class="node">
<title>QueryInputDirective </title>
<polygon fill="#fb8072" stroke="#000000" points="248.1158,-252 111.8842,-252 111.8842,-216 248.1158,-216 248.1158,-252"/>
<text text-anchor="middle" x="180" y="-229.8" font-family="Times,serif" font-size="14.00" fill="#000000">QueryInputDirective </text>
</g>
<!-- QueryBuilderModule&#45;&gt;QueryInputDirective  -->
<g id="edge6" class="edge">
<title>QueryBuilderModule&#45;&gt;QueryInputDirective </title>
<path fill="none" stroke="#000000" stroke-dasharray="5,2" d="M221.3978,-187.1061C221.3978,-187.1061 221.3978,-205.991 221.3978,-205.991"/>
<polygon fill="#000000" stroke="#000000" points="217.8979,-205.9909 221.3978,-215.991 224.8979,-205.991 217.8979,-205.9909"/>
</g>
<!-- CommonModule -->
<g id="node4" class="node">
<title>CommonModule</title>
<polygon fill="#8dd3c7" stroke="#000000" points="248.6681,-122 245.6681,-126 224.6681,-126 221.6681,-122 137.3319,-122 137.3319,-86 248.6681,-86 248.6681,-122"/>
<text text-anchor="middle" x="193" y="-99.8" font-family="Times,serif" font-size="14.00" fill="#000000">CommonModule</text>
</g>
<!-- CommonModule&#45;&gt;QueryBuilderModule -->
<g id="edge3" class="edge">
<title>CommonModule&#45;&gt;QueryBuilderModule</title>
<path fill="none" stroke="#000000" d="M221.7858,-122.1061C221.7858,-122.1061 221.7858,-140.991 221.7858,-140.991"/>
<polygon fill="#000000" stroke="#000000" points="218.2858,-140.9909 221.7858,-150.991 225.2858,-140.991 218.2858,-140.9909"/>
</g>
<!-- FormsModule -->
<g id="node5" class="node">
<title>FormsModule</title>
<polygon fill="#8dd3c7" stroke="#000000" points="119.8288,-122 116.8288,-126 95.8288,-126 92.8288,-122 24.1712,-122 24.1712,-86 119.8288,-86 119.8288,-122"/>
<text text-anchor="middle" x="72" y="-99.8" font-family="Times,serif" font-size="14.00" fill="#000000">FormsModule</text>
</g>
<!-- FormsModule&#45;&gt;QueryBuilderModule -->
<g id="edge4" class="edge">
<title>FormsModule&#45;&gt;QueryBuilderModule</title>
<path fill="none" stroke="#000000" d="M115.8031,-122.1061C115.8031,-141.3391 115.8031,-169 115.8031,-169 115.8031,-169 184.5727,-169 184.5727,-169"/>
<polygon fill="#000000" stroke="#000000" points="184.5727,-172.5001 194.5727,-169 184.5726,-165.5001 184.5727,-172.5001"/>
</g>
</g>
</svg>
