<?xml version="1.0" encoding="UTF-8" standalone="no"?>
<!DOCTYPE svg PUBLIC "-//W3C//DTD SVG 1.1//EN"
 "http://www.w3.org/Graphics/SVG/1.1/DTD/svg11.dtd">
<!-- Generated by graphviz version 2.40.1 (20161225.0304)
 -->
<!-- Title: dependencies Pages: 1 -->
<svg width="2076pt" height="284pt"
 viewBox="0.00 0.00 2076.00 284.00" xmlns="http://www.w3.org/2000/svg" xmlns:xlink="http://www.w3.org/1999/xlink">
<g id="graph0" class="graph" transform="scale(1 1) rotate(0) translate(4 280)">
<title>dependencies</title>
<polygon fill="#ffffff" stroke="transparent" points="-4,4 -4,-280 2072,-280 2072,4 -4,4"/>
<text text-anchor="start" x="1013.0091" y="-42.4" font-family="sans-serif" font-weight="bold" font-size="14.00" fill="#000000">Legend</text>
<polygon fill="#ffffb3" stroke="transparent" points="800,-10 800,-30 820,-30 820,-10 800,-10"/>
<text text-anchor="start" x="823.629" y="-15.4" font-family="sans-serif" font-size="14.00" fill="#000000"> &#160;Declarations</text>
<polygon fill="#8dd3c7" stroke="transparent" points="913,-10 913,-30 933,-30 933,-10 913,-10"/>
<text text-anchor="start" x="936.7251" y="-15.4" font-family="sans-serif" font-size="14.00" fill="#000000"> &#160;Module</text>
<polygon fill="#80b1d3" stroke="transparent" points="999,-10 999,-30 1019,-30 1019,-10 999,-10"/>
<text text-anchor="start" x="1022.7812" y="-15.4" font-family="sans-serif" font-size="14.00" fill="#000000"> &#160;Bootstrap</text>
<polygon fill="#fdb462" stroke="transparent" points="1096,-10 1096,-30 1116,-30 1116,-10 1096,-10"/>
<text text-anchor="start" x="1119.6732" y="-15.4" font-family="sans-serif" font-size="14.00" fill="#000000"> &#160;Providers</text>
<polygon fill="#fb8072" stroke="transparent" points="1192,-10 1192,-30 1212,-30 1212,-10 1192,-10"/>
<text text-anchor="start" x="1215.7258" y="-15.4" font-family="sans-serif" font-size="14.00" fill="#000000"> &#160;Exports</text>
<g id="clust1" class="cluster">
<title>cluster_QueryBuilderModule</title>
<polygon fill="none" stroke="#000000" stroke-dasharray="1,5" points="8,-70 8,-268 2060,-268 2060,-70 8,-70"/>
</g>
<g id="clust2" class="cluster">
<title>cluster_QueryBuilderModule_declarations</title>
<polygon fill="none" stroke="#000000" points="265,-78 265,-130 2052,-130 2052,-78 265,-78"/>
</g>
<g id="clust13" class="cluster">
<title>cluster_QueryBuilderModule_imports</title>
<polygon fill="none" stroke="#000000" points="16,-78 16,-130 257,-130 257,-78 16,-78"/>
</g>
<g id="clust14" class="cluster">
<title>cluster_QueryBuilderModule_exports</title>
<polygon fill="none" stroke="#000000" points="79,-208 79,-260 1901,-260 1901,-208 79,-208"/>
</g>
<!-- QueryBuilderComponent -->
<g id="node1" class="node">
<title>QueryBuilderComponent</title>
<polygon fill="#ffffb3" stroke="#000000" points="2044.3075,-122 1885.6925,-122 1885.6925,-86 2044.3075,-86 2044.3075,-122"/>
<text text-anchor="middle" x="1965" y="-99.8" font-family="Times,serif" font-size="14.00" fill="#000000">QueryBuilderComponent</text>
</g>
<!-- QueryBuilderModule -->
<g id="node11" class="node">
<title>QueryBuilderModule</title>
<polygon fill="#8dd3c7" stroke="#000000" points="1113.0254,-187 1110.0254,-191 1089.0254,-191 1086.0254,-187 976.9746,-187 976.9746,-151 1113.0254,-151 1113.0254,-187"/>
<text text-anchor="middle" x="1045" y="-164.8" font-family="Times,serif" font-size="14.00" fill="#000000">QueryBuilderModule</text>
</g>
<!-- QueryBuilderComponent&#45;&gt;QueryBuilderModule -->
<g id="edge1" class="edge">
<title>QueryBuilderComponent&#45;&gt;QueryBuilderModule</title>
<path fill="none" stroke="#000000" d="M1889.375,-122.1061C1889.375,-141.3391 1889.375,-169 1889.375,-169 1889.375,-169 1123.0271,-169 1123.0271,-169"/>
<polygon fill="#000000" stroke="#000000" points="1123.0271,-165.5001 1113.0271,-169 1123.027,-172.5001 1123.0271,-165.5001"/>
</g>
<!-- QueryInputDirective -->
<g id="node2" class="node">
<title>QueryInputDirective</title>
<polygon fill="#ffffb3" stroke="#000000" points="1868.1164,-122 1735.8836,-122 1735.8836,-86 1868.1164,-86 1868.1164,-122"/>
<text text-anchor="middle" x="1802" y="-99.8" font-family="Times,serif" font-size="14.00" fill="#000000">QueryInputDirective</text>
</g>
<!-- QueryInputDirective&#45;&gt;QueryBuilderModule -->
<g id="edge2" class="edge">
<title>QueryInputDirective&#45;&gt;QueryBuilderModule</title>
<path fill="none" stroke="#000000" d="M1824.1026,-122.2667C1824.1026,-140.5552 1824.1026,-166 1824.1026,-166 1824.1026,-166 1123.117,-166 1123.117,-166"/>
<polygon fill="#000000" stroke="#000000" points="1123.117,-162.5001 1113.117,-166 1123.1169,-169.5001 1123.117,-162.5001"/>
</g>
<!-- QueryOperatorDirective -->
<g id="node3" class="node">
<title>QueryOperatorDirective</title>
<polygon fill="#ffffb3" stroke="#000000" points="1717.3123,-122 1564.6877,-122 1564.6877,-86 1717.3123,-86 1717.3123,-122"/>
<text text-anchor="middle" x="1641" y="-99.8" font-family="Times,serif" font-size="14.00" fill="#000000">QueryOperatorDirective</text>
</g>
<!-- QueryOperatorDirective&#45;&gt;QueryBuilderModule -->
<g id="edge3" class="edge">
<title>QueryOperatorDirective&#45;&gt;QueryBuilderModule</title>
<path fill="none" stroke="#000000" d="M1570.768,-122.0336C1570.768,-139.0597 1570.768,-162 1570.768,-162 1570.768,-162 1123.196,-162 1123.196,-162"/>
<polygon fill="#000000" stroke="#000000" points="1123.196,-158.5001 1113.196,-162 1123.1959,-165.5001 1123.196,-158.5001"/>
</g>
<!-- QueryFieldDirective -->
<g id="node4" class="node">
<title>QueryFieldDirective</title>
<polygon fill="#ffffb3" stroke="#000000" points="1546.8431,-122 1415.1569,-122 1415.1569,-86 1546.8431,-86 1546.8431,-122"/>
<text text-anchor="middle" x="1481" y="-99.8" font-family="Times,serif" font-size="14.00" fill="#000000">QueryFieldDirective</text>
</g>
<!-- QueryFieldDirective&#45;&gt;QueryBuilderModule -->
<g id="edge4" class="edge">
<title>QueryFieldDirective&#45;&gt;QueryBuilderModule</title>
<path fill="none" stroke="#000000" d="M1481,-122.0091C1481,-138.0494 1481,-159 1481,-159 1481,-159 1123.125,-159 1123.125,-159"/>
<polygon fill="#000000" stroke="#000000" points="1123.125,-155.5001 1113.125,-159 1123.125,-162.5001 1123.125,-155.5001"/>
</g>
<!-- QueryEntityDirective -->
<g id="node5" class="node">
<title>QueryEntityDirective</title>
<polygon fill="#ffffb3" stroke="#000000" points="1396.7893,-122 1259.2107,-122 1259.2107,-86 1396.7893,-86 1396.7893,-122"/>
<text text-anchor="middle" x="1328" y="-99.8" font-family="Times,serif" font-size="14.00" fill="#000000">QueryEntityDirective</text>
</g>
<!-- QueryEntityDirective&#45;&gt;QueryBuilderModule -->
<g id="edge5" class="edge">
<title>QueryEntityDirective&#45;&gt;QueryBuilderModule</title>
<path fill="none" stroke="#000000" d="M1322.0135,-122.1243C1322.0135,-136.7832 1322.0135,-155 1322.0135,-155 1322.0135,-155 1123.1199,-155 1123.1199,-155"/>
<polygon fill="#000000" stroke="#000000" points="1123.1199,-151.5001 1113.1199,-155 1123.1199,-158.5001 1123.1199,-151.5001"/>
</g>
<!-- QueryButtonGroupDirective -->
<g id="node6" class="node">
<title>QueryButtonGroupDirective</title>
<polygon fill="#ffffb3" stroke="#000000" points="1241.4496,-122 1064.5504,-122 1064.5504,-86 1241.4496,-86 1241.4496,-122"/>
<text text-anchor="middle" x="1153" y="-99.8" font-family="Times,serif" font-size="14.00" fill="#000000">QueryButtonGroupDirective</text>
</g>
<!-- QueryButtonGroupDirective&#45;&gt;QueryBuilderModule -->
<g id="edge6" class="edge">
<title>QueryButtonGroupDirective&#45;&gt;QueryBuilderModule</title>
<path fill="none" stroke="#000000" d="M1088.8938,-122.1061C1088.8938,-122.1061 1088.8938,-140.991 1088.8938,-140.991"/>
<polygon fill="#000000" stroke="#000000" points="1085.3938,-140.9909 1088.8938,-150.991 1092.3938,-140.991 1085.3938,-140.9909"/>
</g>
<!-- QuerySwitchGroupDirective -->
<g id="node7" class="node">
<title>QuerySwitchGroupDirective</title>
<polygon fill="#ffffb3" stroke="#000000" points="1046.717,-122 869.283,-122 869.283,-86 1046.717,-86 1046.717,-122"/>
<text text-anchor="middle" x="958" y="-99.8" font-family="Times,serif" font-size="14.00" fill="#000000">QuerySwitchGroupDirective</text>
</g>
<!-- QuerySwitchGroupDirective&#45;&gt;QueryBuilderModule -->
<g id="edge7" class="edge">
<title>QuerySwitchGroupDirective&#45;&gt;QueryBuilderModule</title>
<path fill="none" stroke="#000000" d="M1011.7981,-122.1061C1011.7981,-122.1061 1011.7981,-140.991 1011.7981,-140.991"/>
<polygon fill="#000000" stroke="#000000" points="1008.2981,-140.9909 1011.7981,-150.991 1015.2981,-140.991 1008.2981,-140.9909"/>
</g>
<!-- QueryRemoveButtonDirective -->
<g id="node8" class="node">
<title>QueryRemoveButtonDirective</title>
<polygon fill="#ffffb3" stroke="#000000" points="850.8389,-122 663.1611,-122 663.1611,-86 850.8389,-86 850.8389,-122"/>
<text text-anchor="middle" x="757" y="-99.8" font-family="Times,serif" font-size="14.00" fill="#000000">QueryRemoveButtonDirective</text>
</g>
<!-- QueryRemoveButtonDirective&#45;&gt;QueryBuilderModule -->
<g id="edge8" class="edge">
<title>QueryRemoveButtonDirective&#45;&gt;QueryBuilderModule</title>
<path fill="none" stroke="#000000" d="M771.6555,-122.1243C771.6555,-136.7832 771.6555,-155 771.6555,-155 771.6555,-155 966.7287,-155 966.7287,-155"/>
<polygon fill="#000000" stroke="#000000" points="966.7288,-158.5001 976.7287,-155 966.7287,-151.5001 966.7288,-158.5001"/>
</g>
<!-- QueryEmptyWarningDirective -->
<g id="node9" class="node">
<title>QueryEmptyWarningDirective</title>
<polygon fill="#ffffb3" stroke="#000000" points="644.8792,-122 455.1208,-122 455.1208,-86 644.8792,-86 644.8792,-122"/>
<text text-anchor="middle" x="550" y="-99.8" font-family="Times,serif" font-size="14.00" fill="#000000">QueryEmptyWarningDirective</text>
</g>
<!-- QueryEmptyWarningDirective&#45;&gt;QueryBuilderModule -->
<g id="edge9" class="edge">
<title>QueryEmptyWarningDirective&#45;&gt;QueryBuilderModule</title>
<path fill="none" stroke="#000000" d="M564.01,-122.0091C564.01,-138.0494 564.01,-159 564.01,-159 564.01,-159 966.8515,-159 966.8515,-159"/>
<polygon fill="#000000" stroke="#000000" points="966.8516,-162.5001 976.8515,-159 966.8515,-155.5001 966.8516,-162.5001"/>
</g>
<!-- QueryArrowIconDirective -->
<g id="node10" class="node">
<title>QueryArrowIconDirective</title>
<polygon fill="#ffffb3" stroke="#000000" points="437.4749,-122 272.5251,-122 272.5251,-86 437.4749,-86 437.4749,-122"/>
<text text-anchor="middle" x="355" y="-99.8" font-family="Times,serif" font-size="14.00" fill="#000000">QueryArrowIconDirective</text>
</g>
<!-- QueryArrowIconDirective&#45;&gt;QueryBuilderModule -->
<g id="edge10" class="edge">
<title>QueryArrowIconDirective&#45;&gt;QueryBuilderModule</title>
<path fill="none" stroke="#000000" d="M355,-122.0336C355,-139.0597 355,-162 355,-162 355,-162 966.9518,-162 966.9518,-162"/>
<polygon fill="#000000" stroke="#000000" points="966.9518,-165.5001 976.9518,-162 966.9517,-158.5001 966.9518,-165.5001"/>
</g>
<!-- QueryBuilderComponent  -->
<g id="node14" class="node">
<title>QueryBuilderComponent </title>
<polygon fill="#fb8072" stroke="#000000" points="1892.8073,-252 1731.1927,-252 1731.1927,-216 1892.8073,-216 1892.8073,-252"/>
<text text-anchor="middle" x="1812" y="-229.8" font-family="Times,serif" font-size="14.00" fill="#000000">QueryBuilderComponent </text>
</g>
<!-- QueryBuilderModule&#45;&gt;QueryBuilderComponent  -->
<g id="edge13" class="edge">
<title>QueryBuilderModule&#45;&gt;QueryBuilderComponent </title>
<path fill="none" stroke="#000000" stroke-dasharray="5,2" d="M1113.1484,-173C1295.3332,-173 1779.8974,-173 1779.8974,-173 1779.8974,-173 1779.8974,-205.698 1779.8974,-205.698"/>
<polygon fill="#000000" stroke="#000000" points="1776.3975,-205.698 1779.8974,-215.698 1783.3975,-205.698 1776.3975,-205.698"/>
</g>
<!-- QueryInputDirective  -->
<g id="node15" class="node">
<title>QueryInputDirective </title>
<polygon fill="#fb8072" stroke="#000000" points="1713.1158,-252 1576.8842,-252 1576.8842,-216 1713.1158,-216 1713.1158,-252"/>
<text text-anchor="middle" x="1645" y="-229.8" font-family="Times,serif" font-size="14.00" fill="#000000">QueryInputDirective </text>
</g>
<!-- QueryBuilderModule&#45;&gt;QueryInputDirective  -->
<g id="edge14" class="edge">
<title>QueryBuilderModule&#45;&gt;QueryInputDirective </title>
<path fill="none" stroke="#000000" stroke-dasharray="5,2" d="M1113.2435,-177C1270.503,-177 1645,-177 1645,-177 1645,-177 1645,-205.9648 1645,-205.9648"/>
<polygon fill="#000000" stroke="#000000" points="1641.5001,-205.9648 1645,-215.9648 1648.5001,-205.9649 1641.5001,-205.9648"/>
</g>
<!-- QueryOperatorDirective  -->
<g id="node16" class="node">
<title>QueryOperatorDirective </title>
<polygon fill="#fb8072" stroke="#000000" points="1559.3125,-252 1402.6875,-252 1402.6875,-216 1559.3125,-216 1559.3125,-252"/>
<text text-anchor="middle" x="1481" y="-229.8" font-family="Times,serif" font-size="14.00" fill="#000000">QueryOperatorDirective </text>
</g>
<!-- QueryBuilderModule&#45;&gt;QueryOperatorDirective  -->
<g id="edge15" class="edge">
<title>QueryBuilderModule&#45;&gt;QueryOperatorDirective </title>
<path fill="none" stroke="#000000" stroke-dasharray="5,2" d="M1113.0314,-180C1218.3749,-180 1408.9612,-180 1408.9612,-180 1408.9612,-180 1408.9612,-205.7181 1408.9612,-205.7181"/>
<polygon fill="#000000" stroke="#000000" points="1405.4613,-205.718 1408.9612,-215.7181 1412.4613,-205.7181 1405.4613,-205.718"/>
</g>
<!-- QueryFieldDirective  -->
<g id="node17" class="node">
<title>QueryFieldDirective </title>
<polygon fill="#fb8072" stroke="#000000" points="1384.8434,-252 1249.1566,-252 1249.1566,-216 1384.8434,-216 1384.8434,-252"/>
<text text-anchor="middle" x="1317" y="-229.8" font-family="Times,serif" font-size="14.00" fill="#000000">QueryFieldDirective </text>
</g>
<!-- QueryBuilderModule&#45;&gt;QueryFieldDirective  -->
<g id="edge16" class="edge">
<title>QueryBuilderModule&#45;&gt;QueryFieldDirective </title>
<path fill="none" stroke="#000000" stroke-dasharray="5,2" d="M1113.2567,-184C1174.3468,-184 1254.342,-184 1254.342,-184 1254.342,-184 1254.342,-205.9489 1254.342,-205.9489"/>
<polygon fill="#000000" stroke="#000000" points="1250.8421,-205.9488 1254.342,-215.9489 1257.8421,-205.9489 1250.8421,-205.9488"/>
</g>
<!-- QueryEntityDirective  -->
<g id="node18" class="node">
<title>QueryEntityDirective </title>
<polygon fill="#fb8072" stroke="#000000" points="1231.2892,-252 1090.7108,-252 1090.7108,-216 1231.2892,-216 1231.2892,-252"/>
<text text-anchor="middle" x="1161" y="-229.8" font-family="Times,serif" font-size="14.00" fill="#000000">QueryEntityDirective </text>
</g>
<!-- QueryBuilderModule&#45;&gt;QueryEntityDirective  -->
<g id="edge17" class="edge">
<title>QueryBuilderModule&#45;&gt;QueryEntityDirective </title>
<path fill="none" stroke="#000000" stroke-dasharray="5,2" d="M1101.9339,-187.1061C1101.9339,-187.1061 1101.9339,-205.991 1101.9339,-205.991"/>
<polygon fill="#000000" stroke="#000000" points="1098.434,-205.9909 1101.9339,-215.991 1105.434,-205.991 1098.434,-205.9909"/>
</g>
<!-- QueryButtonGroupDirective  -->
<g id="node19" class="node">
<title>QueryButtonGroupDirective </title>
<polygon fill="#fb8072" stroke="#000000" points="1072.4502,-252 891.5498,-252 891.5498,-216 1072.4502,-216 1072.4502,-252"/>
<text text-anchor="middle" x="982" y="-229.8" font-family="Times,serif" font-size="14.00" fill="#000000">QueryButtonGroupDirective </text>
</g>
<!-- QueryBuilderModule&#45;&gt;QueryButtonGroupDirective  -->
<g id="edge18" class="edge">
<title>QueryBuilderModule&#45;&gt;QueryButtonGroupDirective </title>
<path fill="none" stroke="#000000" stroke-dasharray="5,2" d="M1024.4813,-187.1061C1024.4813,-187.1061 1024.4813,-205.991 1024.4813,-205.991"/>
<polygon fill="#000000" stroke="#000000" points="1020.9813,-205.9909 1024.4813,-215.991 1027.9813,-205.991 1020.9813,-205.9909"/>
</g>
<!-- QuerySwitchGroupDirective  -->
<g id="node20" class="node">
<title>QuerySwitchGroupDirective </title>
<polygon fill="#fb8072" stroke="#000000" points="873.7169,-252 692.2831,-252 692.2831,-216 873.7169,-216 873.7169,-252"/>
<text text-anchor="middle" x="783" y="-229.8" font-family="Times,serif" font-size="14.00" fill="#000000">QuerySwitchGroupDirective </text>
</g>
<!-- QueryBuilderModule&#45;&gt;QuerySwitchGroupDirective  -->
<g id="edge19" class="edge">
<title>QueryBuilderModule&#45;&gt;QuerySwitchGroupDirective </title>
<path fill="none" stroke="#000000" stroke-dasharray="5,2" d="M976.9122,-184C924.1714,-184 860.0305,-184 860.0305,-184 860.0305,-184 860.0305,-205.9489 860.0305,-205.9489"/>
<polygon fill="#000000" stroke="#000000" points="856.5306,-205.9488 860.0305,-215.9489 863.5306,-205.9489 856.5306,-205.9488"/>
</g>
<!-- QueryRemoveButtonDirective  -->
<g id="node21" class="node">
<title>QueryRemoveButtonDirective </title>
<polygon fill="#fb8072" stroke="#000000" points="674.8391,-252 483.1609,-252 483.1609,-216 674.8391,-216 674.8391,-252"/>
<text text-anchor="middle" x="579" y="-229.8" font-family="Times,serif" font-size="14.00" fill="#000000">QueryRemoveButtonDirective </text>
</g>
<!-- QueryBuilderModule&#45;&gt;QueryRemoveButtonDirective  -->
<g id="edge20" class="edge">
<title>QueryBuilderModule&#45;&gt;QueryRemoveButtonDirective </title>
<path fill="none" stroke="#000000" stroke-dasharray="5,2" d="M976.8866,-180C868.4977,-180 668.875,-180 668.875,-180 668.875,-180 668.875,-205.7181 668.875,-205.7181"/>
<polygon fill="#000000" stroke="#000000" points="665.3751,-205.718 668.875,-215.7181 672.3751,-205.7181 665.3751,-205.718"/>
</g>
<!-- QueryEmptyWarningDirective  -->
<g id="node22" class="node">
<title>QueryEmptyWarningDirective </title>
<polygon fill="#fb8072" stroke="#000000" points="465.3788,-252 272.6212,-252 272.6212,-216 465.3788,-216 465.3788,-252"/>
<text text-anchor="middle" x="369" y="-229.8" font-family="Times,serif" font-size="14.00" fill="#000000">QueryEmptyWarningDirective </text>
</g>
<!-- QueryBuilderModule&#45;&gt;QueryEmptyWarningDirective  -->
<g id="edge21" class="edge">
<title>QueryBuilderModule&#45;&gt;QueryEmptyWarningDirective </title>
<path fill="none" stroke="#000000" stroke-dasharray="5,2" d="M976.7919,-177C822.5743,-177 460.375,-177 460.375,-177 460.375,-177 460.375,-205.9648 460.375,-205.9648"/>
<polygon fill="#000000" stroke="#000000" points="456.8751,-205.9648 460.375,-215.9648 463.8751,-205.9649 456.8751,-205.9648"/>
</g>
<!-- QueryArrowIconDirective  -->
<g id="node23" class="node">
<title>QueryArrowIconDirective </title>
<polygon fill="#fb8072" stroke="#000000" points="254.9742,-252 87.0258,-252 87.0258,-216 254.9742,-216 254.9742,-252"/>
<text text-anchor="middle" x="171" y="-229.8" font-family="Times,serif" font-size="14.00" fill="#000000">QueryArrowIconDirective </text>
</g>
<!-- QueryBuilderModule&#45;&gt;QueryArrowIconDirective  -->
<g id="edge22" class="edge">
<title>QueryBuilderModule&#45;&gt;QueryArrowIconDirective </title>
<path fill="none" stroke="#000000" stroke-dasharray="5,2" d="M976.6846,-173C771.4461,-173 174.3887,-173 174.3887,-173 174.3887,-173 174.3887,-205.698 174.3887,-205.698"/>
<polygon fill="#000000" stroke="#000000" points="170.8888,-205.698 174.3887,-215.698 177.8888,-205.698 170.8888,-205.698"/>
</g>
<!-- CommonModule -->
<g id="node12" class="node">
<title>CommonModule</title>
<polygon fill="#8dd3c7" stroke="#000000" points="248.6681,-122 245.6681,-126 224.6681,-126 221.6681,-122 137.3319,-122 137.3319,-86 248.6681,-86 248.6681,-122"/>
<text text-anchor="middle" x="193" y="-99.8" font-family="Times,serif" font-size="14.00" fill="#000000">CommonModule</text>
</g>
<!-- CommonModule&#45;&gt;QueryBuilderModule -->
<g id="edge11" class="edge">
<title>CommonModule&#45;&gt;QueryBuilderModule</title>
<path fill="none" stroke="#000000" d="M211.6113,-122.2667C211.6113,-140.5552 211.6113,-166 211.6113,-166 211.6113,-166 966.8003,-166 966.8003,-166"/>
<polygon fill="#000000" stroke="#000000" points="966.8003,-169.5001 976.8003,-166 966.8003,-162.5001 966.8003,-169.5001"/>
</g>
<!-- FormsModule -->
<g id="node13" class="node">
<title>FormsModule</title>
<polygon fill="#8dd3c7" stroke="#000000" points="119.8288,-122 116.8288,-126 95.8288,-126 92.8288,-122 24.1712,-122 24.1712,-86 119.8288,-86 119.8288,-122"/>
<text text-anchor="middle" x="72" y="-99.8" font-family="Times,serif" font-size="14.00" fill="#000000">FormsModule</text>
</g>
<!-- FormsModule&#45;&gt;QueryBuilderModule -->
<g id="edge12" class="edge">
<title>FormsModule&#45;&gt;QueryBuilderModule</title>
<path fill="none" stroke="#000000" d="M103.3385,-122.1061C103.3385,-141.3391 103.3385,-169 103.3385,-169 103.3385,-169 966.8992,-169 966.8992,-169"/>
<polygon fill="#000000" stroke="#000000" points="966.8993,-172.5001 976.8992,-169 966.8992,-165.5001 966.8993,-172.5001"/>
</g>
</g>
</svg>
