<?xml version="1.0" encoding="UTF-8" standalone="no"?>
<!DOCTYPE svg PUBLIC "-//W3C//DTD SVG 1.1//EN"
 "http://www.w3.org/Graphics/SVG/1.1/DTD/svg11.dtd">
<!-- Generated by graphviz version 2.40.1 (20161225.0304)
 -->
<!-- Title: dependencies Pages: 1 -->
<svg width="1677pt" height="284pt"
 viewBox="0.00 0.00 1677.00 284.00" xmlns="http://www.w3.org/2000/svg" xmlns:xlink="http://www.w3.org/1999/xlink">
<g id="graph0" class="graph" transform="scale(1 1) rotate(0) translate(4 280)">
<title>dependencies</title>
<polygon fill="#ffffff" stroke="transparent" points="-4,4 -4,-280 1673,-280 1673,4 -4,4"/>
<text text-anchor="start" x="813.5091" y="-42.4" font-family="sans-serif" font-weight="bold" font-size="14.00" fill="#000000">Legend</text>
<polygon fill="#ffffb3" stroke="transparent" points="600.5,-10 600.5,-30 620.5,-30 620.5,-10 600.5,-10"/>
<text text-anchor="start" x="624.129" y="-15.4" font-family="sans-serif" font-size="14.00" fill="#000000"> &#160;Declarations</text>
<polygon fill="#8dd3c7" stroke="transparent" points="713.5,-10 713.5,-30 733.5,-30 733.5,-10 713.5,-10"/>
<text text-anchor="start" x="737.2251" y="-15.4" font-family="sans-serif" font-size="14.00" fill="#000000"> &#160;Module</text>
<polygon fill="#80b1d3" stroke="transparent" points="799.5,-10 799.5,-30 819.5,-30 819.5,-10 799.5,-10"/>
<text text-anchor="start" x="823.2812" y="-15.4" font-family="sans-serif" font-size="14.00" fill="#000000"> &#160;Bootstrap</text>
<polygon fill="#fdb462" stroke="transparent" points="896.5,-10 896.5,-30 916.5,-30 916.5,-10 896.5,-10"/>
<text text-anchor="start" x="920.1732" y="-15.4" font-family="sans-serif" font-size="14.00" fill="#000000"> &#160;Providers</text>
<polygon fill="#fb8072" stroke="transparent" points="992.5,-10 992.5,-30 1012.5,-30 1012.5,-10 992.5,-10"/>
<text text-anchor="start" x="1016.2258" y="-15.4" font-family="sans-serif" font-size="14.00" fill="#000000"> &#160;Exports</text>
<g id="clust1" class="cluster">
<title>cluster_QueryBuilderModule</title>
<polygon fill="none" stroke="#000000" stroke-dasharray="1,5" points="8,-70 8,-268 1661,-268 1661,-70 8,-70"/>
</g>
<g id="clust2" class="cluster">
<title>cluster_QueryBuilderModule_declarations</title>
<polygon fill="none" stroke="#000000" points="32,-78 32,-130 1637,-130 1637,-78 32,-78"/>
</g>
<g id="clust13" class="cluster">
<title>cluster_QueryBuilderModule_exports</title>
<polygon fill="none" stroke="#000000" points="16,-208 16,-260 1653,-260 1653,-208 16,-208"/>
</g>
<!-- QueryBuilderComponent -->
<g id="node1" class="node">
<title>QueryBuilderComponent</title>
<polygon fill="#ffffb3" stroke="#000000" points="1629.3075,-122 1470.6925,-122 1470.6925,-86 1629.3075,-86 1629.3075,-122"/>
<text text-anchor="middle" x="1550" y="-99.8" font-family="Times,serif" font-size="14.00" fill="#000000">QueryBuilderComponent</text>
</g>
<!-- QueryBuilderModule -->
<g id="node10" class="node">
<title>QueryBuilderModule</title>
<polygon fill="#8dd3c7" stroke="#000000" points="897.0254,-187 894.0254,-191 873.0254,-191 870.0254,-187 760.9746,-187 760.9746,-151 897.0254,-151 897.0254,-187"/>
<text text-anchor="middle" x="829" y="-164.8" font-family="Times,serif" font-size="14.00" fill="#000000">QueryBuilderModule</text>
</g>
<!-- QueryBuilderComponent&#45;&gt;QueryBuilderModule -->
<g id="edge1" class="edge">
<title>QueryBuilderComponent&#45;&gt;QueryBuilderModule</title>
<path fill="none" stroke="#000000" d="M1476.9714,-122.2222C1476.9714,-140.8285 1476.9714,-167 1476.9714,-167 1476.9714,-167 907.1196,-167 907.1196,-167"/>
<polygon fill="#000000" stroke="#000000" points="907.1196,-163.5001 897.1196,-167 907.1196,-170.5001 907.1196,-163.5001"/>
</g>
<!-- QueryButtonGroupDirective -->
<g id="node2" class="node">
<title>QueryButtonGroupDirective</title>
<polygon fill="#ffffb3" stroke="#000000" points="1452.4496,-122 1275.5504,-122 1275.5504,-86 1452.4496,-86 1452.4496,-122"/>
<text text-anchor="middle" x="1364" y="-99.8" font-family="Times,serif" font-size="14.00" fill="#000000">QueryButtonGroupDirective</text>
</g>
<!-- QueryButtonGroupDirective&#45;&gt;QueryBuilderModule -->
<g id="edge2" class="edge">
<title>QueryButtonGroupDirective&#45;&gt;QueryBuilderModule</title>
<path fill="none" stroke="#000000" d="M1280.1502,-122.0225C1280.1502,-139.3734 1280.1502,-163 1280.1502,-163 1280.1502,-163 907.0302,-163 907.0302,-163"/>
<polygon fill="#000000" stroke="#000000" points="907.0303,-159.5001 897.0302,-163 907.0302,-166.5001 907.0303,-159.5001"/>
</g>
<!-- QueryEmptyWarningDirective -->
<g id="node3" class="node">
<title>QueryEmptyWarningDirective</title>
<polygon fill="#ffffb3" stroke="#000000" points="1257.8792,-122 1068.1208,-122 1068.1208,-86 1257.8792,-86 1257.8792,-122"/>
<text text-anchor="middle" x="1163" y="-99.8" font-family="Times,serif" font-size="14.00" fill="#000000">QueryEmptyWarningDirective</text>
</g>
<!-- QueryEmptyWarningDirective&#45;&gt;QueryBuilderModule -->
<g id="edge3" class="edge">
<title>QueryEmptyWarningDirective&#45;&gt;QueryBuilderModule</title>
<path fill="none" stroke="#000000" d="M1196.3131,-122.0091C1196.3131,-138.0494 1196.3131,-159 1196.3131,-159 1196.3131,-159 907.228,-159 907.228,-159"/>
<polygon fill="#000000" stroke="#000000" points="907.228,-155.5001 897.228,-159 907.2279,-162.5001 907.228,-155.5001"/>
</g>
<!-- QueryEntityDirective -->
<g id="node4" class="node">
<title>QueryEntityDirective</title>
<polygon fill="#ffffb3" stroke="#000000" points="1050.7893,-122 913.2107,-122 913.2107,-86 1050.7893,-86 1050.7893,-122"/>
<text text-anchor="middle" x="982" y="-99.8" font-family="Times,serif" font-size="14.00" fill="#000000">QueryEntityDirective</text>
</g>
<!-- QueryEntityDirective&#45;&gt;QueryBuilderModule -->
<g id="edge4" class="edge">
<title>QueryEntityDirective&#45;&gt;QueryBuilderModule</title>
<path fill="none" stroke="#000000" d="M1005.2982,-122.1243C1005.2982,-136.7832 1005.2982,-155 1005.2982,-155 1005.2982,-155 907.1615,-155 907.1615,-155"/>
<polygon fill="#000000" stroke="#000000" points="907.1615,-151.5001 897.1615,-155 907.1614,-158.5001 907.1615,-151.5001"/>
</g>
<!-- QueryFieldDirective -->
<g id="node5" class="node">
<title>QueryFieldDirective</title>
<polygon fill="#ffffb3" stroke="#000000" points="894.8431,-122 763.1569,-122 763.1569,-86 894.8431,-86 894.8431,-122"/>
<text text-anchor="middle" x="829" y="-99.8" font-family="Times,serif" font-size="14.00" fill="#000000">QueryFieldDirective</text>
</g>
<!-- QueryFieldDirective&#45;&gt;QueryBuilderModule -->
<g id="edge5" class="edge">
<title>QueryFieldDirective&#45;&gt;QueryBuilderModule</title>
<path fill="none" stroke="#000000" d="M829,-122.1061C829,-122.1061 829,-140.991 829,-140.991"/>
<polygon fill="#000000" stroke="#000000" points="825.5001,-140.9909 829,-150.991 832.5001,-140.991 825.5001,-140.9909"/>
</g>
<!-- QueryInputDirective -->
<g id="node6" class="node">
<title>QueryInputDirective</title>
<polygon fill="#ffffb3" stroke="#000000" points="745.1164,-122 612.8836,-122 612.8836,-86 745.1164,-86 745.1164,-122"/>
<text text-anchor="middle" x="679" y="-99.8" font-family="Times,serif" font-size="14.00" fill="#000000">QueryInputDirective</text>
</g>
<!-- QueryInputDirective&#45;&gt;QueryBuilderModule -->
<g id="edge6" class="edge">
<title>QueryInputDirective&#45;&gt;QueryBuilderModule</title>
<path fill="none" stroke="#000000" d="M699.6026,-122.1243C699.6026,-136.7832 699.6026,-155 699.6026,-155 699.6026,-155 750.8909,-155 750.8909,-155"/>
<polygon fill="#000000" stroke="#000000" points="750.8909,-158.5001 760.8909,-155 750.8908,-151.5001 750.8909,-158.5001"/>
</g>
<!-- QueryOperatorDirective -->
<g id="node7" class="node">
<title>QueryOperatorDirective</title>
<polygon fill="#ffffb3" stroke="#000000" points="594.3123,-122 441.6877,-122 441.6877,-86 594.3123,-86 594.3123,-122"/>
<text text-anchor="middle" x="518" y="-99.8" font-family="Times,serif" font-size="14.00" fill="#000000">QueryOperatorDirective</text>
</g>
<!-- QueryOperatorDirective&#45;&gt;QueryBuilderModule -->
<g id="edge7" class="edge">
<title>QueryOperatorDirective&#45;&gt;QueryBuilderModule</title>
<path fill="none" stroke="#000000" d="M539.9687,-122.0091C539.9687,-138.0494 539.9687,-159 539.9687,-159 539.9687,-159 750.8696,-159 750.8696,-159"/>
<polygon fill="#000000" stroke="#000000" points="750.8696,-162.5001 760.8696,-159 750.8696,-155.5001 750.8696,-162.5001"/>
</g>
<!-- QueryRemoveButtonDirective -->
<g id="node8" class="node">
<title>QueryRemoveButtonDirective</title>
<polygon fill="#ffffb3" stroke="#000000" points="423.8389,-122 236.1611,-122 236.1611,-86 423.8389,-86 423.8389,-122"/>
<text text-anchor="middle" x="330" y="-99.8" font-family="Times,serif" font-size="14.00" fill="#000000">QueryRemoveButtonDirective</text>
</g>
<!-- QueryRemoveButtonDirective&#45;&gt;QueryBuilderModule -->
<g id="edge8" class="edge">
<title>QueryRemoveButtonDirective&#45;&gt;QueryBuilderModule</title>
<path fill="none" stroke="#000000" d="M419.2944,-122.0225C419.2944,-139.3734 419.2944,-163 419.2944,-163 419.2944,-163 750.8855,-163 750.8855,-163"/>
<polygon fill="#000000" stroke="#000000" points="750.8856,-166.5001 760.8855,-163 750.8855,-159.5001 750.8856,-166.5001"/>
</g>
<!-- QuerySwitchGroupDirective -->
<g id="node9" class="node">
<title>QuerySwitchGroupDirective</title>
<polygon fill="#ffffb3" stroke="#000000" points="217.717,-122 40.283,-122 40.283,-86 217.717,-86 217.717,-122"/>
<text text-anchor="middle" x="129" y="-99.8" font-family="Times,serif" font-size="14.00" fill="#000000">QuerySwitchGroupDirective</text>
</g>
<!-- QuerySwitchGroupDirective&#45;&gt;QueryBuilderModule -->
<g id="edge9" class="edge">
<title>QuerySwitchGroupDirective&#45;&gt;QueryBuilderModule</title>
<path fill="none" stroke="#000000" d="M211.7334,-122.2222C211.7334,-140.8285 211.7334,-167 211.7334,-167 211.7334,-167 750.8798,-167 750.8798,-167"/>
<polygon fill="#000000" stroke="#000000" points="750.8799,-170.5001 760.8798,-167 750.8798,-163.5001 750.8799,-170.5001"/>
</g>
<!-- QueryBuilderComponent  -->
<g id="node11" class="node">
<title>QueryBuilderComponent </title>
<polygon fill="#fb8072" stroke="#000000" points="1644.8073,-252 1483.1927,-252 1483.1927,-216 1644.8073,-216 1644.8073,-252"/>
<text text-anchor="middle" x="1564" y="-229.8" font-family="Times,serif" font-size="14.00" fill="#000000">QueryBuilderComponent </text>
</g>
<!-- QueryBuilderModule&#45;&gt;QueryBuilderComponent  -->
<g id="edge10" class="edge">
<title>QueryBuilderModule&#45;&gt;QueryBuilderComponent </title>
<path fill="none" stroke="#000000" stroke-dasharray="5,2" d="M897.0794,-171C1077.8382,-171 1556.125,-171 1556.125,-171 1556.125,-171 1556.125,-205.7778 1556.125,-205.7778"/>
<polygon fill="#000000" stroke="#000000" points="1552.6251,-205.7778 1556.125,-215.7778 1559.6251,-205.7778 1552.6251,-205.7778"/>
</g>
<!-- QueryButtonGroupDirective  -->
<g id="node12" class="node">
<title>QueryButtonGroupDirective </title>
<polygon fill="#fb8072" stroke="#000000" points="1465.4502,-252 1284.5498,-252 1284.5498,-216 1465.4502,-216 1465.4502,-252"/>
<text text-anchor="middle" x="1375" y="-229.8" font-family="Times,serif" font-size="14.00" fill="#000000">QueryButtonGroupDirective </text>
</g>
<!-- QueryBuilderModule&#45;&gt;QueryButtonGroupDirective  -->
<g id="edge11" class="edge">
<title>QueryBuilderModule&#45;&gt;QueryButtonGroupDirective </title>
<path fill="none" stroke="#000000" stroke-dasharray="5,2" d="M897.0705,-175C1042.1396,-175 1368.625,-175 1368.625,-175 1368.625,-175 1368.625,-205.9775 1368.625,-205.9775"/>
<polygon fill="#000000" stroke="#000000" points="1365.1251,-205.9774 1368.625,-215.9775 1372.1251,-205.9775 1365.1251,-205.9774"/>
</g>
<!-- QueryEmptyWarningDirective  -->
<g id="node13" class="node">
<title>QueryEmptyWarningDirective </title>
<polygon fill="#fb8072" stroke="#000000" points="1266.3788,-252 1073.6212,-252 1073.6212,-216 1266.3788,-216 1266.3788,-252"/>
<text text-anchor="middle" x="1170" y="-229.8" font-family="Times,serif" font-size="14.00" fill="#000000">QueryEmptyWarningDirective </text>
</g>
<!-- QueryBuilderModule&#45;&gt;QueryEmptyWarningDirective  -->
<g id="edge12" class="edge">
<title>QueryBuilderModule&#45;&gt;QueryEmptyWarningDirective </title>
<path fill="none" stroke="#000000" stroke-dasharray="5,2" d="M897.2774,-179C987.444,-179 1134.9369,-179 1134.9369,-179 1134.9369,-179 1134.9369,-205.9909 1134.9369,-205.9909"/>
<polygon fill="#000000" stroke="#000000" points="1131.437,-205.9909 1134.9369,-215.9909 1138.437,-205.991 1131.437,-205.9909"/>
</g>
<!-- QueryEntityDirective  -->
<g id="node14" class="node">
<title>QueryEntityDirective </title>
<polygon fill="#fb8072" stroke="#000000" points="1055.2892,-252 914.7108,-252 914.7108,-216 1055.2892,-216 1055.2892,-252"/>
<text text-anchor="middle" x="985" y="-229.8" font-family="Times,serif" font-size="14.00" fill="#000000">QueryEntityDirective </text>
</g>
<!-- QueryBuilderModule&#45;&gt;QueryEntityDirective  -->
<g id="edge13" class="edge">
<title>QueryBuilderModule&#45;&gt;QueryEntityDirective </title>
<path fill="none" stroke="#000000" stroke-dasharray="5,2" d="M897.1608,-183C928.9798,-183 959.9518,-183 959.9518,-183 959.9518,-183 959.9518,-205.8757 959.9518,-205.8757"/>
<polygon fill="#000000" stroke="#000000" points="956.4519,-205.8757 959.9518,-215.8757 963.4519,-205.8757 956.4519,-205.8757"/>
</g>
<!-- QueryFieldDirective  -->
<g id="node15" class="node">
<title>QueryFieldDirective </title>
<polygon fill="#fb8072" stroke="#000000" points="896.8434,-252 761.1566,-252 761.1566,-216 896.8434,-216 896.8434,-252"/>
<text text-anchor="middle" x="829" y="-229.8" font-family="Times,serif" font-size="14.00" fill="#000000">QueryFieldDirective </text>
</g>
<!-- QueryBuilderModule&#45;&gt;QueryFieldDirective  -->
<g id="edge14" class="edge">
<title>QueryBuilderModule&#45;&gt;QueryFieldDirective </title>
<path fill="none" stroke="#000000" stroke-dasharray="5,2" d="M829,-187.1061C829,-187.1061 829,-205.991 829,-205.991"/>
<polygon fill="#000000" stroke="#000000" points="825.5001,-205.9909 829,-215.991 832.5001,-205.991 825.5001,-205.9909"/>
</g>
<!-- QueryInputDirective  -->
<g id="node16" class="node">
<title>QueryInputDirective </title>
<polygon fill="#fb8072" stroke="#000000" points="743.1158,-252 606.8842,-252 606.8842,-216 743.1158,-216 743.1158,-252"/>
<text text-anchor="middle" x="675" y="-229.8" font-family="Times,serif" font-size="14.00" fill="#000000">QueryInputDirective </text>
</g>
<!-- QueryBuilderModule&#45;&gt;QueryInputDirective  -->
<g id="edge15" class="edge">
<title>QueryBuilderModule&#45;&gt;QueryInputDirective </title>
<path fill="none" stroke="#000000" stroke-dasharray="5,2" d="M760.6841,-183C712.3688,-183 656.1474,-183 656.1474,-183 656.1474,-183 656.1474,-205.8757 656.1474,-205.8757"/>
<polygon fill="#000000" stroke="#000000" points="652.6475,-205.8757 656.1474,-215.8757 659.6475,-205.8757 652.6475,-205.8757"/>
</g>
<!-- QueryOperatorDirective  -->
<g id="node17" class="node">
<title>QueryOperatorDirective </title>
<polygon fill="#fb8072" stroke="#000000" points="589.3125,-252 432.6875,-252 432.6875,-216 589.3125,-216 589.3125,-252"/>
<text text-anchor="middle" x="511" y="-229.8" font-family="Times,serif" font-size="14.00" fill="#000000">QueryOperatorDirective </text>
</g>
<!-- QueryBuilderModule&#45;&gt;QueryOperatorDirective  -->
<g id="edge16" class="edge">
<title>QueryBuilderModule&#45;&gt;QueryOperatorDirective </title>
<path fill="none" stroke="#000000" stroke-dasharray="5,2" d="M760.9633,-179C662.1979,-179 490.7813,-179 490.7813,-179 490.7813,-179 490.7813,-205.9909 490.7813,-205.9909"/>
<polygon fill="#000000" stroke="#000000" points="487.2814,-205.9909 490.7813,-215.9909 494.2814,-205.991 487.2814,-205.9909"/>
</g>
<!-- QueryRemoveButtonDirective  -->
<g id="node18" class="node">
<title>QueryRemoveButtonDirective </title>
<polygon fill="#fb8072" stroke="#000000" points="414.8391,-252 223.1609,-252 223.1609,-216 414.8391,-216 414.8391,-252"/>
<text text-anchor="middle" x="319" y="-229.8" font-family="Times,serif" font-size="14.00" fill="#000000">QueryRemoveButtonDirective </text>
</g>
<!-- QueryBuilderModule&#45;&gt;QueryRemoveButtonDirective  -->
<g id="edge17" class="edge">
<title>QueryBuilderModule&#45;&gt;QueryRemoveButtonDirective </title>
<path fill="none" stroke="#000000" stroke-dasharray="5,2" d="M760.817,-175C623.2325,-175 325.375,-175 325.375,-175 325.375,-175 325.375,-205.9775 325.375,-205.9775"/>
<polygon fill="#000000" stroke="#000000" points="321.8751,-205.9774 325.375,-215.9775 328.8751,-205.9775 321.8751,-205.9774"/>
</g>
<!-- QuerySwitchGroupDirective  -->
<g id="node19" class="node">
<title>QuerySwitchGroupDirective </title>
<polygon fill="#fb8072" stroke="#000000" points="205.7169,-252 24.2831,-252 24.2831,-216 205.7169,-216 205.7169,-252"/>
<text text-anchor="middle" x="115" y="-229.8" font-family="Times,serif" font-size="14.00" fill="#000000">QuerySwitchGroupDirective </text>
</g>
<!-- QueryBuilderModule&#45;&gt;QuerySwitchGroupDirective  -->
<g id="edge18" class="edge">
<title>QueryBuilderModule&#45;&gt;QuerySwitchGroupDirective </title>
<path fill="none" stroke="#000000" stroke-dasharray="5,2" d="M760.9733,-171C583.999,-171 122.875,-171 122.875,-171 122.875,-171 122.875,-205.7778 122.875,-205.7778"/>
<polygon fill="#000000" stroke="#000000" points="119.3751,-205.7778 122.875,-215.7778 126.3751,-205.7778 119.3751,-205.7778"/>
</g>
</g>
</svg>
